<svg width="153" height="33" viewBox="0 0 153 33" fill="none" xmlns="http://www.w3.org/2000/svg">
<g clip-path="url(#clip0_2506_13343)">
<path d="M20.9892 11.4282L17.1964 6.16812C17.1363 6.08599 17.0461 6.03906 16.9484 6.03906H4.91233C3.16819 6.0508 2.00293 7.14974 2.00293 8.72189V11.9014H20.9591C21.1132 11.9014 21.2034 11.7176 21.1095 11.5885L20.9929 11.4243L20.9892 11.4282Z" fill="#5292E5"/>
<path d="M86.7818 6.04297H78.625V11.9053H82.7899C83.1357 11.9053 83.3048 11.8154 83.5003 11.5299L86.8946 6.41059L86.936 6.35192C87.0224 6.22287 86.936 6.04688 86.7818 6.04688V6.04297Z" fill="#5292E5"/>
<path d="M63.8187 13.9272V8.72189C63.8187 8.72189 63.8111 7.72463 63.0518 6.95028C62.5632 6.45361 61.7701 6.04297 60.4695 6.04297H45.0579C44.9301 6.04297 44.8174 6.1251 44.7685 6.24242C44.761 6.26198 44.7535 6.28153 44.7497 6.30499C44.7459 6.32846 44.7422 6.34801 44.7422 6.37148V6.57484V6.83296V11.1153V11.3813V11.9092H57.2857C57.3082 11.9092 57.327 11.9092 57.3458 11.921C57.3609 11.9249 57.3721 11.9327 57.3872 11.9405C57.3872 11.9405 57.3909 11.9405 57.3947 11.9444C57.4285 11.9679 57.4548 12.0031 57.4661 12.0461C57.4661 12.0578 57.4736 12.0696 57.4736 12.0852C57.4736 12.093 57.4736 12.0969 57.4736 12.1048V12.8283V16.0703V16.567C57.4736 16.6765 57.3909 16.7626 57.2857 16.7626H51.0308C50.9256 16.7626 50.8429 16.6765 50.8429 16.567V16.2229V14.1892V13.3992C50.8429 13.3523 50.8316 13.3054 50.8128 13.2624C50.764 13.149 50.655 13.0746 50.5309 13.0746H44.7422V28.8666V29.5901V29.6879C44.7422 29.7113 44.7422 29.7309 44.7497 29.7543C44.7572 29.7778 44.761 29.7974 44.7685 29.8169C44.7986 29.8912 44.855 29.9499 44.9264 29.9851C44.9677 30.0046 45.0091 30.0164 45.0579 30.0164H50.5347C50.5798 30.0164 50.6249 30.0046 50.6662 29.9851C50.7376 29.9499 50.794 29.8912 50.8241 29.8169C50.8316 29.7974 50.8391 29.7778 50.8429 29.7543C50.8467 29.7309 50.8504 29.7113 50.8504 29.6879V29.5901V28.671V22.5193H60.6837C60.7063 22.5193 60.7326 22.5193 60.7552 22.5193C61.3528 22.5115 61.9655 22.2729 62.4805 21.8897C62.5218 21.8584 62.5632 21.8271 62.6045 21.7958C62.6459 21.7645 62.6835 21.7293 62.7248 21.6941C62.7812 21.6433 62.8413 21.5885 62.894 21.5338C63.4616 20.9667 63.8375 20.2197 63.8262 19.461V13.9429L63.8187 13.9272Z" fill="#5292E5"/>
<path d="M42.2463 8.80012C42.1711 7.90063 41.7313 7.14584 41.0772 6.65307C41.0622 6.64134 41.0434 6.62961 41.0246 6.61396C40.9983 6.59441 40.972 6.57877 40.9457 6.55921C40.9382 6.5553 40.9344 6.55139 40.9269 6.54748C40.8667 6.50837 40.8066 6.46926 40.7427 6.43407C40.2879 6.17595 39.7541 6.03125 39.1827 6.03125H26.0491C25.3011 6.03125 24.6207 6.28154 24.0907 6.70391C24.0644 6.72347 24.0381 6.74693 24.0155 6.76649C23.9779 6.79777 23.9441 6.82906 23.9103 6.86035C23.8802 6.89163 23.8464 6.91901 23.8163 6.9503C23.354 7.42742 23.0533 8.06488 22.9931 8.7923C22.9931 8.81185 22.9931 8.83141 22.9931 8.84705V11.8936H36.5139C36.5402 11.8936 36.5628 11.8975 36.5853 11.9092C36.5891 11.9092 36.5966 11.9131 36.6004 11.9171C36.6079 11.921 36.6154 11.9288 36.6229 11.9327C36.668 11.9679 36.6981 12.0226 36.6981 12.0891V23.9976C36.6981 24.0524 36.6755 24.0993 36.6417 24.1345C36.6079 24.1697 36.5628 24.1932 36.5102 24.1932H28.7029C28.6691 24.1932 28.639 24.1853 28.6127 24.1697C28.6127 24.1697 28.6127 24.1697 28.6089 24.1697C28.5939 24.1619 28.5826 24.1501 28.5713 24.1384C28.5525 24.1189 28.5375 24.0915 28.5262 24.0641C28.5187 24.0445 28.515 24.0211 28.515 23.9976V13.3758C28.515 13.3289 28.5037 13.2819 28.4849 13.2389C28.4698 13.2037 28.4473 13.1724 28.421 13.1451C28.4135 13.1372 28.4059 13.1294 28.3984 13.1255C28.3458 13.0786 28.2744 13.0512 28.1992 13.0512H22.9668V26.6844C22.9668 26.9151 22.9856 27.138 23.0269 27.357C23.0269 27.3688 23.0307 27.3805 23.0345 27.3922C23.042 27.4352 23.0533 27.4783 23.0608 27.5174C23.0608 27.533 23.0683 27.5447 23.072 27.5604C23.0833 27.5995 23.0908 27.6386 23.1021 27.6738C23.1059 27.6894 23.1134 27.7051 23.1172 27.7246C23.1359 27.7833 23.1547 27.842 23.1773 27.9006C23.2149 27.9984 23.2562 28.0962 23.3013 28.19C23.3126 28.2135 23.3239 28.237 23.3352 28.2565C23.3502 28.2839 23.3615 28.3113 23.3765 28.3347C23.3878 28.3543 23.3991 28.3738 23.4103 28.3934C23.4705 28.4951 23.5306 28.5889 23.6021 28.6828C23.6246 28.7141 23.6472 28.7415 23.6697 28.7727C24.2711 29.5354 25.1921 30.0007 26.1844 29.989H39.0173C40.7427 30.0125 42.2538 28.5811 42.235 26.6883V16.6101V10.9785V8.85487C42.235 8.85487 42.235 8.81576 42.235 8.79621L42.2463 8.80012Z" fill="#5292E5"/>
<path d="M77.5086 6.04297H65.7319C65.6943 6.04297 65.6605 6.05079 65.6267 6.06252C65.6116 6.06643 65.5966 6.07426 65.5853 6.08208C65.4876 6.13683 65.4199 6.24633 65.4199 6.36757V11.5807C65.4199 11.7606 65.559 11.9053 65.7319 11.9053H71.2199C71.2425 11.9053 71.265 11.9092 71.2876 11.917C71.3402 11.9366 71.3816 11.9835 71.4004 12.0422C71.4004 12.0539 71.4079 12.0657 71.4079 12.0813C71.4079 12.0891 71.4079 12.093 71.4079 12.1008V28.8509V29.5001V29.68C71.4079 29.7035 71.4079 29.7231 71.4154 29.7465C71.4229 29.77 71.4267 29.7895 71.4342 29.8091C71.4643 29.8834 71.5206 29.9421 71.5921 29.9773C71.6334 29.9968 71.6748 30.0086 71.7236 30.0086H77.2004C77.3733 30.0086 77.5123 29.8639 77.5123 29.684V6.04297H77.5086Z" fill="#5292E5"/>
<path d="M21.1287 25.5889C21.1287 25.5224 21.1287 25.452 21.1287 25.3855C21.1287 25.2838 21.1212 25.1861 21.11 25.0883C21.1062 25.0375 21.0987 24.9866 21.0949 24.9397C21.0949 24.928 21.0949 24.9201 21.0949 24.9084C21.0874 24.8615 21.0836 24.8145 21.0761 24.7676C21.0761 24.7559 21.0724 24.7441 21.0686 24.7324C21.0611 24.6894 21.0536 24.6464 21.0461 24.6073C21.0461 24.5955 21.0423 24.5877 21.0385 24.576C21.031 24.5369 21.0197 24.4939 21.0122 24.4547C21.0122 24.4391 21.0047 24.4235 21.0009 24.4078C20.9934 24.3687 20.9822 24.3335 20.9709 24.2944C20.9709 24.2944 20.9709 24.2866 20.9709 24.2827C20.9671 24.2631 20.9596 24.2475 20.9558 24.2279C20.9483 24.1966 20.9408 24.1693 20.9295 24.1419C20.9258 24.1223 20.9182 24.1028 20.9107 24.0871C20.8957 24.0441 20.8844 24.0011 20.8694 23.962C20.8656 23.9463 20.8581 23.9307 20.8543 23.915C20.8431 23.8838 20.8318 23.8525 20.8205 23.8212C20.813 23.8016 20.8055 23.786 20.8017 23.7703C20.7867 23.7351 20.7717 23.7 20.7604 23.6648C20.7529 23.6491 20.7491 23.6374 20.7416 23.6217C20.7265 23.5826 20.7078 23.5474 20.6927 23.5083C20.6852 23.4927 20.6777 23.477 20.6702 23.4614C20.6551 23.4301 20.6401 23.3949 20.6213 23.3636C20.6138 23.3519 20.61 23.3402 20.6025 23.3284C20.5799 23.2854 20.5574 23.2463 20.5348 23.2033C20.5273 23.1915 20.5198 23.1798 20.516 23.1681C20.4973 23.1368 20.4785 23.1016 20.4597 23.0703C20.4521 23.0586 20.4446 23.0468 20.4409 23.0351C20.4146 22.9921 20.392 22.953 20.3657 22.91C20.3619 22.9021 20.3544 22.8943 20.3507 22.8865C20.3281 22.8513 20.3055 22.8161 20.283 22.7848C20.2755 22.7731 20.268 22.7614 20.2604 22.7496C20.2341 22.7105 20.2041 22.6675 20.174 22.6284C20.1439 22.5893 20.1138 22.5502 20.0838 22.5071C20.065 22.4798 20.0462 22.4563 20.0274 22.4328C19.9748 22.3624 19.9184 22.296 19.8658 22.2295C19.8206 22.1708 19.7718 22.1161 19.7267 22.0574C19.6853 22.0066 19.644 21.9596 19.6026 21.9127C19.5575 21.8579 19.5087 21.8032 19.4636 21.7524C19.3959 21.6781 19.332 21.6037 19.2643 21.5294C19.2192 21.4786 19.1741 21.4278 19.1252 21.3808C19.035 21.2831 18.9411 21.1853 18.8508 21.0875C18.802 21.0367 18.7531 20.9858 18.708 20.935C18.614 20.8333 18.5201 20.7355 18.4261 20.6339C18.2833 20.4813 18.1404 20.3288 17.9976 20.1724C17.5465 19.6796 16.8774 18.9757 16.1332 18.2013C15.9264 17.9862 15.7159 17.7672 15.4979 17.5443C15.4114 17.4544 15.325 17.3683 15.2385 17.2784C15.1934 17.2314 15.1483 17.1884 15.107 17.1415C15.0205 17.0515 14.9341 16.9616 14.8476 16.8755C13.2764 15.2565 11.7052 13.6608 11.2578 13.2033C11.2353 13.1798 11.209 13.1603 11.1827 13.1407C11.115 13.0977 11.0361 13.0742 10.9534 13.0742H2.74767C2.69129 13.0742 2.66498 13.1446 2.70256 13.1837L3.27768 13.7899L3.42052 13.9385L6.55169 17.251L12.8103 23.8799C12.9118 23.9854 12.8629 24.1575 12.7389 24.2005C12.7201 24.2084 12.6975 24.2123 12.675 24.2123H0.334451C0.229201 24.2123 0.138987 24.267 0.0826035 24.3452C0.063809 24.3726 0.0487733 24.4039 0.0374966 24.4391C0.0374966 24.4508 0.0337377 24.4587 0.0299788 24.4704C0.0262198 24.4899 0.0224609 24.5134 0.0224609 24.5369V29.222V29.6835C0.0224609 29.6835 0.0224609 29.707 0.0224609 29.7148C0.0299788 29.7852 0.0600501 29.8517 0.101398 29.8986C0.108916 29.9064 0.116434 29.9143 0.123952 29.9221C0.154023 29.9534 0.191612 29.9729 0.23296 29.9886C0.263031 30.0003 0.296861 30.0042 0.334451 30.0042H16.7872C17.96 30.0042 19.1065 29.5388 19.9146 28.6511C20.8468 27.6303 21.1212 26.5275 21.1287 25.5928V25.5889Z" fill="#5292E5"/>
<path d="M0.443459 2.1392C0.326933 2.1392 0.229201 2.09618 0.146505 2.01014C0.063809 1.9241 0.0224609 1.82242 0.0224609 1.70118V1.50564H0.462254V1.67772H1.62752V1.30619H0.443459C0.326933 1.30619 0.229201 1.26317 0.146505 1.17713C0.063809 1.09109 0.0224609 0.989413 0.0224609 0.868177V0.45754C0.0224609 0.336304 0.063809 0.234622 0.146505 0.148584C0.229201 0.0625458 0.326933 0.0234375 0.443459 0.0234375H1.65383C1.7666 0.0234375 1.86809 0.0664567 1.95078 0.152495C2.03348 0.238533 2.07483 0.340215 2.07483 0.461451V0.656992H1.62752V0.484916H0.462254V0.856445H1.65007C1.76284 0.856445 1.86433 0.899464 1.94702 0.985502C2.02972 1.07154 2.07107 1.17322 2.07107 1.29446V1.71292C2.07107 1.83415 2.02972 1.93583 1.94702 2.02187C1.86433 2.10791 1.76284 2.15093 1.65007 2.15093H0.443459V2.1392Z" fill="#5292E5"/>
<path d="M1.65392 2.16269H0.443552C0.323266 2.16269 0.218017 2.11576 0.131562 2.02972C0.0451069 1.93977 0 1.83027 0 1.70512V1.48612H0.4849V1.65819H1.60506V1.33359H0.443552C0.323266 1.33359 0.218017 1.28666 0.131562 1.20063C0.0451069 1.11068 0 1.00117 0 0.876027V0.457567C0 0.332421 0.0451069 0.222917 0.131562 0.132968C0.218017 0.0430192 0.323266 0 0.443552 0H1.65392C1.77421 0 1.87946 0.04693 1.96591 0.132968C2.05237 0.222917 2.09747 0.332421 2.09747 0.457567V0.676574H1.60881V0.504497H0.4849V0.829097H1.65392C1.77421 0.829097 1.87946 0.876027 1.96591 0.962065C2.05237 1.05201 2.09747 1.16152 2.09747 1.28666V1.70512C2.09747 1.83027 2.05237 1.93977 1.96591 2.02972C1.87946 2.11967 1.77421 2.16269 1.65392 2.16269ZM0.041348 1.52914V1.70512C0.041348 1.81854 0.082696 1.91631 0.157874 1.99844C0.236811 2.08056 0.330784 2.11967 0.439793 2.11967H1.65016C1.75917 2.11967 1.85314 2.08056 1.93208 1.99844C2.01102 1.91631 2.05237 1.81854 2.05237 1.70512V1.28666C2.05237 1.17325 2.01102 1.07548 1.93208 0.993352C1.85314 0.911224 1.75917 0.872116 1.65016 0.872116H0.443552V0.457567H1.65016V0.629644H2.05612V0.453657C2.05612 0.340242 2.01478 0.242472 1.93584 0.160344C1.8569 0.0782167 1.76293 0.0391083 1.65392 0.0391083H0.443552C0.334543 0.0430192 0.236811 0.0860383 0.161633 0.164255C0.0826961 0.246382 0.041348 0.344153 0.041348 0.457567V0.876027C0.041348 0.989441 0.082696 1.08721 0.157874 1.16934C0.236811 1.25147 0.330784 1.29058 0.439793 1.29058H1.6464V1.70512H0.443552V1.53305H0.041348V1.52914Z" fill="#5292E5"/>
<path d="M3.70215 2.1392V0.0234375H4.1457V0.852534H5.35607V0.0234375H5.79962V2.1392H5.35607V1.3101H4.1457V2.1392H3.70215Z" fill="#5292E5"/>
<path d="M5.82241 2.16269H5.33751V1.33359H4.16849V2.16269H3.68359V0H4.16849V0.829097H5.33751V0H5.82241V2.16269ZM5.37886 2.11967H5.77731V0.0430192H5.37886V0.872116H4.12339V0.0430192H3.72494V2.11967H4.12339V1.28666H5.37886V2.11576V2.11967Z" fill="#5292E5"/>
<path d="M7.85557 2.1392C7.73904 2.1392 7.64131 2.09618 7.55861 2.01014C7.47592 1.92411 7.43457 1.82242 7.43457 1.70119V0.457544C7.43457 0.336309 7.47592 0.234627 7.55861 0.148589C7.64131 0.0625504 7.73904 0.0195312 7.85557 0.0195312H9.06594C9.1787 0.0195312 9.2802 0.0625504 9.36289 0.148589C9.44559 0.234627 9.48694 0.336309 9.48694 0.457544V1.7051C9.48694 1.82634 9.44559 1.92802 9.36289 2.01406C9.2802 2.10009 9.1787 2.14311 9.06594 2.14311H7.85557V2.1392ZM7.96834 1.68164H9.03962V0.48101H7.87436V1.68164H7.96834Z" fill="#5292E5"/>
<path d="M9.06603 2.16269H7.85566C7.73538 2.16269 7.63013 2.11576 7.54367 2.02972C7.45722 1.93977 7.41211 1.83027 7.41211 1.70512V0.457567C7.41211 0.332421 7.45722 0.222917 7.54367 0.132968C7.63013 0.0430192 7.73538 0 7.85566 0H9.06603C9.18632 0 9.29157 0.04693 9.37802 0.132968C9.46448 0.222917 9.50958 0.332421 9.50958 0.457567V1.70512C9.50958 1.83027 9.46448 1.93977 9.37802 2.02972C9.29157 2.11967 9.18632 2.16269 9.06603 2.16269ZM7.85566 0.0430192C7.74665 0.0430192 7.64892 0.0821275 7.57374 0.164255C7.49481 0.246382 7.45722 0.344153 7.45722 0.457567V1.70512C7.45722 1.81854 7.49856 1.91631 7.57374 1.99844C7.65268 2.08056 7.74665 2.11967 7.85566 2.11967H9.06603C9.17504 2.11967 9.26901 2.08056 9.34795 1.99844C9.42689 1.91631 9.46823 1.81854 9.46823 1.70512V0.457567C9.46823 0.344153 9.42689 0.246382 9.34795 0.164255C9.26901 0.0821275 9.17504 0.0430192 9.06603 0.0430192H7.85566ZM9.06227 1.70121H7.85566V0.457567H9.06227V1.70121ZM7.89701 1.65819H9.01716V0.504497H7.89701V1.6621V1.65819Z" fill="#5292E5"/>
<path d="M11.5284 2.1392C11.4119 2.1392 11.3142 2.09618 11.2315 2.01014C11.1488 1.9241 11.1074 1.82242 11.1074 1.70118V0.0234375H11.551V1.68163H12.7162V0.0234375H13.1635V1.7051C13.1635 1.82633 13.1222 1.92801 13.0395 2.01405C12.9568 2.10009 12.8553 2.14311 12.7425 2.14311H11.5322L11.5284 2.1392Z" fill="#5292E5"/>
<path d="M12.7389 2.16269H11.5285C11.4082 2.16269 11.303 2.11576 11.2165 2.02972C11.1301 1.93977 11.085 1.83027 11.085 1.70512V0H11.5699V1.65819H12.69V0H13.1787V1.70512C13.1787 1.83027 13.1336 1.93977 13.0471 2.02972C12.9607 2.11967 12.8554 2.16269 12.7351 2.16269H12.7389ZM11.1301 0.0430192V1.70512C11.1301 1.81854 11.1714 1.91631 11.2466 1.99844C11.3255 2.08056 11.4195 2.11967 11.5285 2.11967H12.7389C12.8479 2.11967 12.9419 2.08056 13.0208 1.99844C13.0997 1.91631 13.1411 1.81854 13.1411 1.70512V0.0430192H12.7351V1.70121H11.5285V0.0430192H11.1301Z" fill="#5292E5"/>
<path d="M15.49 2.1392V0.481005H14.6855V0.0234375H16.7379V0.481005H15.9335V2.1392H15.49Z" fill="#5292E5"/>
<path d="M15.9562 2.16269H15.4675V0.504497H14.6631V0H16.7606V0.504497H15.9562V2.16269ZM15.5126 2.11967H15.9148V0.457567H16.7192V0.0430192H14.7082V0.457567H15.5126V2.11967Z" fill="#5292E5"/>
<path d="M20.9103 2.1392C20.7937 2.1392 20.696 2.09618 20.6133 2.01014C20.5306 1.92411 20.4893 1.82242 20.4893 1.70119V0.457544C20.4893 0.336309 20.5306 0.234627 20.6133 0.148589C20.696 0.0625504 20.7937 0.0195312 20.9103 0.0195312H22.1206C22.2334 0.0195312 22.3349 0.0625504 22.4176 0.148589C22.5003 0.234627 22.5416 0.336309 22.5416 0.457544V1.7051C22.5416 1.82634 22.5003 1.92802 22.4176 2.01406C22.3349 2.10009 22.2334 2.14311 22.1206 2.14311H20.9103V2.1392ZM21.023 1.68164H22.0943V0.48101H20.9291V1.68164H21.023Z" fill="#5292E5"/>
<path d="M22.1207 2.16269H20.9103C20.7901 2.16269 20.6848 2.11576 20.5984 2.02972C20.5119 1.93977 20.4668 1.83027 20.4668 1.70512V0.457567C20.4668 0.332421 20.5119 0.222917 20.5984 0.132968C20.6848 0.0430192 20.7901 0 20.9103 0H22.1207C22.241 0 22.3463 0.04693 22.4327 0.132968C22.5192 0.222917 22.5643 0.332421 22.5643 0.457567V1.70512C22.5643 1.83027 22.5192 1.93977 22.4327 2.02972C22.3463 2.11967 22.241 2.16269 22.1207 2.16269ZM20.9103 0.0430192C20.8013 0.0430192 20.7036 0.0821275 20.6284 0.164255C20.5495 0.246382 20.5119 0.344153 20.5119 0.457567V1.70512C20.5119 1.81854 20.5533 1.91631 20.6284 1.99844C20.7074 2.08056 20.8013 2.11967 20.9103 2.11967H22.1207C22.2297 2.11967 22.3237 2.08056 22.4026 1.99844C22.4816 1.91631 22.5229 1.81854 22.5229 1.70512V0.457567C22.5229 0.344153 22.4816 0.246382 22.4026 0.164255C22.3237 0.0821275 22.2297 0.0430192 22.1207 0.0430192H20.9103ZM22.117 1.70121H20.9103V0.457567H22.117V1.70121ZM20.9517 1.65819H22.0719V0.504497H20.9517V1.6621V1.65819Z" fill="#5292E5"/>
<path d="M24.5831 2.1392C24.4666 2.1392 24.3689 2.09618 24.2862 2.01014C24.2035 1.9241 24.1621 1.82242 24.1621 1.70118V0.0234375H24.6057V1.68163H25.7709V0.0234375H26.2182V1.7051C26.2182 1.82633 26.1769 1.92801 26.0942 2.01405C26.0115 2.10009 25.91 2.14311 25.7972 2.14311H24.5869L24.5831 2.1392Z" fill="#5292E5"/>
<path d="M25.7936 2.16269H24.5832C24.4629 2.16269 24.3577 2.11576 24.2712 2.02972C24.1848 1.93977 24.1396 1.83027 24.1396 1.70512V0H24.6245V1.65819H25.7447V0H26.2334V1.70512C26.2334 1.83027 26.1883 1.93977 26.1018 2.02972C26.0153 2.11967 25.9101 2.16269 25.7898 2.16269H25.7936ZM24.1848 0.0430192V1.70512C24.1848 1.81854 24.2261 1.91631 24.3013 1.99844C24.3802 2.08056 24.4742 2.11967 24.5832 2.11967H25.7936C25.9026 2.11967 25.9966 2.08056 26.0755 1.99844C26.1544 1.91631 26.1958 1.81854 26.1958 1.70512V0.0430192H25.7898V1.70121H24.5832V0.0430192H24.1848Z" fill="#5292E5"/>
<path d="M27.8389 2.1392V0.0234375H29.4665C29.583 0.0234375 29.6807 0.0664566 29.7672 0.152495C29.8499 0.238533 29.8912 0.340215 29.8912 0.45754V1.00506C29.8912 1.12238 29.8499 1.22406 29.7672 1.3101C29.6845 1.39614 29.583 1.43916 29.4665 1.43916H29.4477L29.8912 1.97885V2.13529H29.4364L28.8688 1.43916H28.2824V2.13529H27.8389V2.1392ZM28.3764 0.981591H29.4477V0.481005H28.2824V0.985502H28.3764V0.981591Z" fill="#5292E5"/>
<path d="M29.9139 2.16269H29.4252L28.8576 1.46656H28.3013V2.16269H27.8164V0H29.4666C29.5869 0 29.6921 0.04693 29.7823 0.136879C29.8688 0.226828 29.9139 0.336332 29.9139 0.457567V1.00508C29.9139 1.13023 29.8688 1.23582 29.7823 1.32577C29.6996 1.4079 29.6056 1.45483 29.4929 1.46265L29.9139 1.97497V2.16269ZM29.4478 2.11967H29.8725V1.99452L29.4027 1.42354H29.4703C29.5793 1.42354 29.6771 1.38052 29.756 1.30231C29.8349 1.22018 29.8763 1.12241 29.8763 1.01291V0.461478C29.8763 0.351975 29.8349 0.254204 29.756 0.172077C29.6771 0.0899492 29.5793 0.0508408 29.4703 0.0508408H27.8615V2.11967H28.26V1.42745H28.8802L29.4478 2.11967ZM29.4666 1.00899H28.26V0.457567H29.4666V1.00508V1.00899ZM28.3013 0.965976H29.4215V0.504497H28.3013V0.962065V0.965976Z" fill="#5292E5"/>
<path d="M33.7362 2.1392V0.0234375H35.3638C35.4803 0.0234375 35.578 0.0664566 35.6645 0.152495C35.7472 0.238533 35.7885 0.340215 35.7885 0.45754V1.00506C35.7885 1.12238 35.7472 1.22406 35.6645 1.3101C35.5818 1.39614 35.4803 1.43916 35.3638 1.43916H34.176V2.13529H33.7324L33.7362 2.1392ZM34.2737 0.981591H35.345V0.481005H34.1797V0.985502H34.2737V0.981591Z" fill="#5292E5"/>
<path d="M34.1988 2.16269H33.7139V0H35.364C35.4843 0 35.5896 0.04693 35.6798 0.136879C35.7662 0.226828 35.8113 0.336332 35.8113 0.457567V1.00508C35.8113 1.13023 35.7662 1.23582 35.6798 1.32577C35.5933 1.41572 35.4881 1.46265 35.364 1.46265H34.1988V2.15878V2.16269ZM33.7552 2.11967H34.1537V1.42745H35.3603C35.4693 1.42745 35.567 1.38443 35.6459 1.30231C35.7249 1.22018 35.7662 1.12241 35.7662 1.01291V0.461478C35.7662 0.351975 35.7249 0.254204 35.6459 0.172077C35.567 0.0899492 35.4693 0.0508408 35.3603 0.0508408H33.7515V2.11967H33.7552ZM35.3603 1.00899H34.1537V0.457567H35.3603V1.00508V1.00899ZM34.195 0.965976H35.3152V0.504497H34.195V0.962065V0.965976Z" fill="#5292E5"/>
<path d="M37.3416 2.1392V0.457545C37.3416 0.336309 37.383 0.234627 37.4657 0.148589C37.5484 0.0625504 37.6461 0.0195312 37.7626 0.0195312H38.9693C39.0858 0.0195312 39.1835 0.0625504 39.27 0.148589C39.3527 0.234627 39.394 0.336309 39.394 0.457545V2.1392H38.9467V1.45872H37.7814V2.1392H37.3379H37.3416ZM37.7852 0.997239H38.9505V0.48101H37.7852V0.997239Z" fill="#5292E5"/>
<path d="M39.416 2.16269H38.9273V1.48221H37.8072V2.16269H37.3223V0.457567C37.3223 0.332421 37.3674 0.222917 37.4538 0.132968C37.5403 0.0430192 37.6455 0 37.7658 0H38.9724C39.0927 0 39.198 0.04693 39.2882 0.132968C39.3746 0.222917 39.4197 0.332421 39.4197 0.457567V2.16269H39.416ZM38.9687 2.11967H39.3746V0.457567C39.3746 0.344153 39.3333 0.246382 39.2543 0.164255C39.1754 0.0821275 39.0777 0.0430192 38.9687 0.0430192H37.7621C37.653 0.0430192 37.5553 0.0821275 37.4801 0.164255C37.4012 0.246382 37.3636 0.344153 37.3636 0.457567V2.11967H37.7621V1.43919H38.9687V2.11967ZM38.9687 1.02073H37.7621V0.457567H38.9687V1.02073ZM37.8034 0.977708H38.9236V0.504497H37.8034V0.977708Z" fill="#5292E5"/>
<path d="M41.4454 2.1392C41.3289 2.1392 41.2312 2.09618 41.1485 2.01015C41.0658 1.92411 41.0244 1.82243 41.0244 1.70119V1.50565H41.468V1.67772H42.6332V1.3062H41.4492C41.3326 1.3062 41.2349 1.26318 41.1522 1.17714C41.0695 1.0911 41.0282 0.989418 41.0282 0.868182V0.457545C41.0282 0.336309 41.0695 0.234627 41.1522 0.148589C41.2349 0.0625504 41.3326 0.0195312 41.4492 0.0195312H42.6595C42.7723 0.0195312 42.8738 0.0625504 42.9565 0.148589C43.0392 0.234627 43.0805 0.336309 43.0805 0.457545V0.653086H42.6332V0.48101H41.468V0.852539H42.6558C42.7686 0.852539 42.87 0.895558 42.9527 0.981596C43.0354 1.06763 43.0768 1.16932 43.0768 1.29055V1.70901C43.0768 1.83025 43.0354 1.93193 42.9527 2.01797C42.87 2.10401 42.7686 2.14702 42.6558 2.14702H41.4454V2.1392Z" fill="#5292E5"/>
<path d="M42.6559 2.16269H41.4455C41.3252 2.16269 41.22 2.11576 41.1335 2.02972C41.0471 1.93977 41.002 1.83027 41.002 1.70512V1.48612H41.4869V1.65819H42.607V1.33359H41.4455C41.3252 1.33359 41.22 1.28666 41.1335 1.20063C41.0471 1.11068 41.002 1.00117 41.002 0.876027V0.457567C41.002 0.332421 41.0471 0.222917 41.1335 0.132968C41.22 0.0430192 41.3252 0 41.4455 0H42.6559C42.7762 0 42.8814 0.04693 42.9679 0.132968C43.0543 0.222917 43.0994 0.332421 43.0994 0.457567V0.676574H42.6108V0.504497H41.4906V0.829097H42.6596C42.7799 0.829097 42.8852 0.876027 42.9716 0.962065C43.0581 1.05201 43.1032 1.16152 43.1032 1.28666V1.70512C43.1032 1.83027 43.0581 1.93977 42.9716 2.02972C42.8852 2.11967 42.7799 2.16269 42.6596 2.16269H42.6559ZM41.0471 1.52914V1.70512C41.0471 1.81854 41.0884 1.91631 41.1636 1.99844C41.2425 2.08056 41.3365 2.11967 41.4455 2.11967H42.6559C42.7649 2.11967 42.8589 2.08056 42.9378 1.99844C43.0167 1.91631 43.0581 1.81854 43.0581 1.70512V1.28666C43.0581 1.17325 43.0167 1.07548 42.9378 0.993352C42.8589 0.911224 42.7649 0.872116 42.6559 0.872116H41.4455V0.457567H42.6521V0.629644H43.0581V0.453657C43.0581 0.340242 43.0167 0.242472 42.9378 0.160344C42.8589 0.0782167 42.7649 0.0391083 42.6559 0.0391083H41.4455C41.3365 0.0391083 41.2388 0.0782167 41.1636 0.160344C41.0846 0.242472 41.0471 0.340242 41.0471 0.453657V0.872116C41.0471 0.98553 41.0884 1.0833 41.1636 1.16543C41.2425 1.24756 41.3365 1.28666 41.4455 1.28666H42.6521V1.70121H41.4455V1.52914H41.0471Z" fill="#5292E5"/>
<path d="M45.1222 2.1392C45.0056 2.1392 44.9079 2.09618 44.8252 2.01015C44.7425 1.92411 44.7012 1.82243 44.7012 1.70119V1.50565H45.1447V1.67772H46.31V1.3062H45.1259C45.0094 1.3062 44.9117 1.26318 44.829 1.17714C44.7463 1.0911 44.7049 0.989418 44.7049 0.868182V0.457545C44.7049 0.336309 44.7463 0.234627 44.829 0.148589C44.9117 0.0625504 45.0094 0.0195312 45.1259 0.0195312H46.3363C46.4491 0.0195312 46.5506 0.0625504 46.6333 0.148589C46.7159 0.234627 46.7573 0.336309 46.7573 0.457545V0.653086H46.31V0.48101H45.1447V0.852539H46.3325C46.4453 0.852539 46.5468 0.895558 46.6295 0.981596C46.7122 1.06763 46.7535 1.16932 46.7535 1.29055V1.70901C46.7535 1.83025 46.7122 1.93193 46.6295 2.01797C46.5468 2.10401 46.4453 2.14702 46.3325 2.14702H45.1222V2.1392Z" fill="#5292E5"/>
<path d="M46.3287 2.16269H45.1184C44.9981 2.16269 44.8928 2.11576 44.8064 2.02972C44.7199 1.93977 44.6748 1.83027 44.6748 1.70512V1.48612H45.1597V1.65819H46.2799V1.33359H45.1184C44.9981 1.33359 44.8928 1.28666 44.8064 1.20063C44.7199 1.11068 44.6748 1.00117 44.6748 0.876027V0.457567C44.6748 0.332421 44.7199 0.222917 44.8064 0.132968C44.8928 0.0430192 44.9981 0 45.1184 0H46.3287C46.449 0 46.5543 0.04693 46.6407 0.132968C46.7272 0.222917 46.7723 0.332421 46.7723 0.457567V0.676574H46.2836V0.504497H45.1635V0.829097H46.3325C46.4528 0.829097 46.558 0.876027 46.6445 0.962065C46.7309 1.05201 46.776 1.16152 46.776 1.28666V1.70512C46.776 1.83027 46.7309 1.93977 46.6445 2.02972C46.558 2.11967 46.4528 2.16269 46.3325 2.16269H46.3287ZM44.7199 1.52914V1.70512C44.7199 1.81854 44.7613 1.91631 44.8364 1.99844C44.9154 2.08056 45.0093 2.11967 45.1184 2.11967H46.3287C46.4377 2.11967 46.5317 2.08056 46.6106 1.99844C46.6896 1.91631 46.7309 1.81854 46.7309 1.70512V1.28666C46.7309 1.17325 46.6896 1.07548 46.6106 0.993352C46.5317 0.911224 46.4377 0.872116 46.3287 0.872116H45.1184V0.457567H46.325V0.629644H46.7309V0.453657C46.7309 0.340242 46.6896 0.242472 46.6106 0.160344C46.5317 0.0782167 46.4377 0.0391083 46.3287 0.0391083H45.1184C45.0093 0.0391083 44.9116 0.0782167 44.8364 0.160344C44.7575 0.242472 44.7199 0.340242 44.7199 0.453657V0.872116C44.7199 0.98553 44.7613 1.0833 44.8364 1.16543C44.9154 1.24756 45.0093 1.28666 45.1184 1.28666H46.325V1.70121H45.1184V1.52914H44.7199Z" fill="#5292E5"/>
<path d="M48.3652 2.1392V0.0234375H48.8013V2.1392H48.3652Z" fill="#5292E5"/>
<path d="M48.8241 2.16269H48.3467V0H48.8241V2.16269ZM48.388 2.11967H48.7827V0.0430192H48.388V2.11967Z" fill="#5292E5"/>
<path d="M50.7149 2.1392C50.5984 2.1392 50.5007 2.09618 50.418 2.01014C50.3353 1.92411 50.2939 1.82242 50.2939 1.70119V0.457544C50.2939 0.336309 50.3353 0.234627 50.418 0.148589C50.5007 0.0625504 50.5984 0.0195312 50.7149 0.0195312H51.9253C52.0381 0.0195312 52.1396 0.0625504 52.2223 0.148589C52.305 0.234627 52.3463 0.336309 52.3463 0.457544V1.7051C52.3463 1.82634 52.305 1.92802 52.2223 2.01406C52.1396 2.10009 52.0381 2.14311 51.9253 2.14311H50.7149V2.1392ZM50.8277 1.68164H51.899V0.48101H50.7337V1.68164H50.8277Z" fill="#5292E5"/>
<path d="M51.9254 2.16269H50.715C50.5947 2.16269 50.4895 2.11576 50.403 2.02972C50.3166 1.93977 50.2715 1.83027 50.2715 1.70512V0.457567C50.2715 0.332421 50.3166 0.222917 50.403 0.132968C50.4895 0.0430192 50.5947 0 50.715 0H51.9254C52.0457 0 52.1509 0.04693 52.2374 0.132968C52.3238 0.222917 52.369 0.332421 52.369 0.457567V1.70512C52.369 1.83027 52.3238 1.93977 52.2374 2.02972C52.1509 2.11967 52.0457 2.16269 51.9254 2.16269ZM50.715 0.0430192C50.606 0.0430192 50.5083 0.0821275 50.4331 0.164255C50.3542 0.246382 50.3166 0.344153 50.3166 0.457567V1.70512C50.3166 1.81854 50.3579 1.91631 50.4331 1.99844C50.5121 2.08056 50.606 2.11967 50.715 2.11967H51.9254C52.0344 2.11967 52.1284 2.08056 52.2073 1.99844C52.2863 1.91631 52.3276 1.81854 52.3276 1.70512V0.457567C52.3276 0.344153 52.2863 0.246382 52.2073 0.164255C52.1284 0.0821275 52.0344 0.0430192 51.9254 0.0430192H50.715ZM51.9216 1.70121H50.715V0.457567H51.9216V1.70121ZM50.7564 1.65819H51.8765V0.504497H50.7564V1.6621V1.65819Z" fill="#5292E5"/>
<path d="M53.9736 2.1392V0.0234375H54.4285L55.5787 1.43525V0.0234375H56.026V2.1392H55.5712L54.4172 0.719566V2.1392H53.9736Z" fill="#5292E5"/>
<path d="M56.0486 2.16269H55.56L54.4361 0.782167V2.16269H53.9512V0H54.4398L55.56 1.3727V0H56.0486V2.16269ZM55.5825 2.11967H56.0073V0.0430192H55.6013V1.49394L54.421 0.0430192H53.9963V2.11967H54.3947V0.660931L55.5825 2.11576V2.11967Z" fill="#5292E5"/>
<path d="M60.5896 2.1392V0.481005H59.7852V0.0234375H61.8375V0.481005H61.0331V2.1392H60.5896Z" fill="#5292E5"/>
<path d="M61.0558 2.16269H60.5671V0.504497H59.7627V0H61.8602V0.504497H61.0558V2.16269ZM60.6122 2.11967H61.0144V0.457567H61.8188V0.0430192H59.8078V0.457567H60.6122V2.11967Z" fill="#5292E5"/>
<path d="M63.7813 2.1392C63.6648 2.1392 63.5671 2.09618 63.4844 2.01014C63.4017 1.92411 63.3604 1.82242 63.3604 1.70119V0.457544C63.3604 0.336309 63.4017 0.234627 63.4844 0.148589C63.5671 0.0625504 63.6648 0.0195312 63.7813 0.0195312H64.9917C65.1045 0.0195312 65.206 0.0625504 65.2887 0.148589C65.3714 0.234627 65.4127 0.336309 65.4127 0.457544V1.7051C65.4127 1.82634 65.3714 1.92802 65.2887 2.01406C65.206 2.10009 65.1045 2.14311 64.9917 2.14311H63.7813V2.1392ZM63.8941 1.68164H64.9654V0.48101H63.8001V1.68164H63.8941Z" fill="#5292E5"/>
<path d="M64.9918 2.16269H63.7814C63.6612 2.16269 63.5559 2.11576 63.4695 2.02972C63.383 1.93977 63.3379 1.83027 63.3379 1.70512V0.457567C63.3379 0.332421 63.383 0.222917 63.4695 0.132968C63.5559 0.0430192 63.6612 0 63.7814 0H64.9918C65.1121 0 65.2173 0.04693 65.3038 0.132968C65.3903 0.222917 65.4354 0.332421 65.4354 0.457567V1.70512C65.4354 1.83027 65.3903 1.93977 65.3038 2.02972C65.2173 2.11967 65.1121 2.16269 64.9918 2.16269ZM63.7814 0.0430192C63.6724 0.0430192 63.5747 0.0821275 63.4995 0.164255C63.4206 0.246382 63.383 0.344153 63.383 0.457567V1.70512C63.383 1.81854 63.4243 1.91631 63.4995 1.99844C63.5785 2.08056 63.6724 2.11967 63.7814 2.11967H64.9918C65.1008 2.11967 65.1948 2.08056 65.2737 1.99844C65.3527 1.91631 65.394 1.81854 65.394 1.70512V0.457567C65.394 0.344153 65.3527 0.246382 65.2737 0.164255C65.1948 0.0821275 65.1008 0.0430192 64.9918 0.0430192H63.7814ZM64.9881 1.70121H63.7814V0.457567H64.9881V1.70121ZM63.8228 1.65819H64.9429V0.504497H63.8228V1.6621V1.65819Z" fill="#5292E5"/>
<path d="M67.461 2.1392C67.3445 2.1392 67.2468 2.09618 67.1641 2.01015C67.0814 1.92411 67.04 1.82243 67.04 1.70119V0.457545C67.04 0.336309 67.0814 0.234627 67.1641 0.148589C67.2468 0.0625504 67.3445 0.0195312 67.461 0.0195312H68.6676C68.7842 0.0195312 68.8819 0.0625504 68.9684 0.148589C69.0511 0.234627 69.0924 0.336309 69.0924 0.457545V0.656997H68.6451V0.48101H67.4798V1.68164H68.6451V1.36486H68.2015V0.90729H69.0962V1.70901C69.0962 1.83025 69.0548 1.93193 68.9721 2.01797C68.8894 2.10401 68.7879 2.14702 68.6714 2.14702H67.4648L67.461 2.1392Z" fill="#5292E5"/>
<path d="M68.6677 2.16269H67.4611C67.3408 2.16269 67.2356 2.11576 67.1491 2.02972C67.0627 1.93977 67.0176 1.83027 67.0176 1.70512V0.457567C67.0176 0.332421 67.0627 0.222917 67.1491 0.132968C67.2356 0.0430192 67.3408 0 67.4611 0H68.6677C68.788 0 68.8933 0.04693 68.9835 0.132968C69.0699 0.222917 69.1151 0.332421 69.1151 0.457567V0.680485H68.6264V0.504497H67.5062V1.6621H68.6264V1.38835H68.1828V0.883848H69.1188V1.70512C69.1188 1.83027 69.0737 1.93977 68.9872 2.02972C68.9008 2.11967 68.7955 2.16269 68.6715 2.16269H68.6677ZM67.4611 0.0430192C67.3521 0.0430192 67.2544 0.0821275 67.1792 0.164255C67.1003 0.246382 67.0627 0.344153 67.0627 0.457567V1.70512C67.0627 1.81854 67.104 1.91631 67.1792 1.99844C67.2582 2.08056 67.3521 2.11967 67.4611 2.11967H68.6677C68.7767 2.11967 68.8745 2.08056 68.9534 1.99844C69.0324 1.91631 69.0737 1.81854 69.0737 1.70512V0.926867H68.2242V1.34142H68.6677V1.70512H67.4611V0.457567H68.6677V0.633555H69.0737V0.453657C69.0737 0.340242 69.0324 0.242472 68.9534 0.160344C68.8745 0.0782167 68.7767 0.0391083 68.6677 0.0391083H67.4611V0.0430192Z" fill="#5292E5"/>
<path d="M70.7236 2.1392V0.0234375H72.6219V0.481005H71.1747V0.852534H72.34V1.3101H71.1747V1.68163H72.6219V2.1392H70.7236Z" fill="#5292E5"/>
<path d="M72.6408 2.16269H70.7012V0H72.6408V0.504497H71.1936V0.829097H72.3589V1.33359H71.1936V1.65819H72.6408V2.16269ZM70.7425 2.11967H72.5957V1.70512H71.1485V1.29058H72.3137V0.876027H71.1485V0.457567H72.5957V0.0430192H70.7425V2.11967Z" fill="#5292E5"/>
<path d="M74.9187 2.1392V0.481005H74.1143V0.0234375H76.1666V0.481005H75.3622V2.1392H74.9187Z" fill="#5292E5"/>
<path d="M75.3849 2.16269H74.8962V0.504497H74.0918V0H76.1893V0.504497H75.3849V2.16269ZM74.9413 2.11967H75.3435V0.457567H76.1479V0.0430192H74.1369V0.457567H74.9413V2.11967Z" fill="#5292E5"/>
<path d="M77.6963 2.1392V0.0234375H78.1398V0.852534H79.3502V0.0234375H79.7938V2.1392H79.3502V1.3101H78.1398V2.1392H77.6963Z" fill="#5292E5"/>
<path d="M79.8126 2.16269H79.3277V1.33359H78.1587V2.16269H77.6738V0H78.1587V0.829097H79.3277V0H79.8126V2.16269ZM79.3691 2.11967H79.7675V0.0430192H79.3691V0.872116H78.1136V0.0430192H77.7152V2.11967H78.1136V1.28666H79.3691V2.11576V2.11967Z" fill="#5292E5"/>
<path d="M81.4365 2.1392V0.0234375H83.3348V0.481005H81.8876V0.852534H83.0529V1.3101H81.8876V1.68163H83.3348V2.1392H81.4365Z" fill="#5292E5"/>
<path d="M83.3537 2.16269H81.4141V0H83.3537V0.504497H81.9065V0.829097H83.0717V1.33359H81.9065V1.65819H83.3537V2.16269ZM81.4554 2.11967H83.3086V1.70512H81.8614V1.29058H83.0266V0.876027H81.8614V0.457567H83.3086V0.0430192H81.4554V2.11967Z" fill="#5292E5"/>
<path d="M84.9248 2.1392V0.0234375H86.5524C86.6689 0.0234375 86.7667 0.0664566 86.8531 0.152495C86.9358 0.238533 86.9772 0.340215 86.9772 0.45754V1.00506C86.9772 1.12238 86.9358 1.22406 86.8531 1.3101C86.7704 1.39614 86.6689 1.43916 86.5524 1.43916H86.5336L86.9772 1.97885V2.13529H86.5223L85.9547 1.43916H85.3684V2.13529H84.9248V2.1392ZM85.4623 0.981591H86.5336V0.481005H85.3684V0.985502H85.4623V0.981591Z" fill="#5292E5"/>
<path d="M86.9998 2.16269H86.5112L85.9436 1.46656H85.3872V2.16269H84.9023V0H86.5525C86.6728 0 86.778 0.04693 86.8683 0.136879C86.9547 0.226828 86.9998 0.336332 86.9998 0.457567V1.00508C86.9998 1.13023 86.9547 1.23582 86.8683 1.32577C86.7856 1.4079 86.6916 1.45483 86.5788 1.46265L86.9998 1.97497V2.16269ZM86.5337 2.11967H86.9585V1.99452L86.4886 1.42354H86.5563C86.6653 1.42354 86.763 1.38052 86.8419 1.30231C86.9209 1.22018 86.9622 1.12241 86.9622 1.01291V0.461478C86.9622 0.351975 86.9209 0.254204 86.8419 0.172077C86.763 0.0899492 86.6653 0.0508408 86.5563 0.0508408H84.9475V2.11967H85.3459V1.42745H85.9661L86.5337 2.11967ZM86.5525 1.00899H85.3459V0.457567H86.5525V1.00508V1.00899ZM85.3872 0.965976H86.5074V0.504497H85.3872V0.962065V0.965976Z" fill="#5292E5"/>
</g>
<path d="M97.463 22.96C97.967 22.96 98.3637 22.8107 98.653 22.512C98.9424 22.2133 99.087 21.7793 99.087 21.21C99.087 20.6407 98.9424 20.2067 98.653 19.908C98.3637 19.6093 97.967 19.46 97.463 19.46H95.447V22.96H97.463ZM99.171 28.252L96.889 24.78H95.447V28.252H93.319V17.64H97.925C98.569 17.64 99.1384 17.7847 99.633 18.074C100.128 18.354 100.515 18.76 100.795 19.292C101.075 19.8147 101.215 20.426 101.215 21.126C101.215 21.826 101.07 22.4373 100.781 22.96C100.501 23.4827 99.969 23.9633 99.185 24.402L101.719 28.252H99.171ZM110.048 19.46H104.938V21.882H109.306V23.702H104.938V26.432H110.048V28.252H102.81V17.64H110.048V19.46ZM116.257 28.364C115.24 28.364 114.335 28.1353 113.541 27.678C112.748 27.2113 112.127 26.5673 111.679 25.746C111.241 24.9247 111.021 23.9913 111.021 22.946C111.021 21.9007 111.241 20.9673 111.679 20.146C112.127 19.3247 112.743 18.6853 113.527 18.228C114.321 17.7613 115.221 17.528 116.229 17.528C116.948 17.528 117.625 17.668 118.259 17.948C118.903 18.2187 119.468 18.606 119.953 19.11L118.595 20.608C118.353 20.2347 118.012 19.936 117.573 19.712C117.144 19.488 116.691 19.376 116.215 19.376C115.273 19.376 114.526 19.698 113.975 20.342C113.425 20.9767 113.149 21.8447 113.149 22.946C113.149 24.0473 113.425 24.92 113.975 25.564C114.535 26.1987 115.291 26.516 116.243 26.516C116.757 26.516 117.2 26.4087 117.573 26.194C117.956 25.97 118.264 25.6947 118.497 25.368L119.953 26.782C119.449 27.3047 118.899 27.7013 118.301 27.972C117.704 28.2427 117.023 28.3733 116.257 28.364ZM125.361 22.96C125.865 22.96 126.262 22.8107 126.551 22.512C126.841 22.2133 126.985 21.7793 126.985 21.21C126.985 20.6407 126.841 20.2067 126.551 19.908C126.262 19.6093 125.865 19.46 125.361 19.46H123.345V22.96H125.361ZM127.069 28.252L124.787 24.78H123.345V28.252H121.217V17.64H125.823C126.467 17.64 127.037 17.7847 127.531 18.074C128.026 18.354 128.413 18.76 128.693 19.292C128.973 19.8147 129.113 20.426 129.113 21.126C129.113 21.826 128.969 22.4373 128.679 22.96C128.399 23.4827 127.867 23.9633 127.083 24.402L129.617 28.252H127.069ZM134.846 28.35C133.978 28.35 133.222 28.168 132.578 27.804C131.943 27.4307 131.453 26.9127 131.108 26.25C130.772 25.5873 130.604 24.8267 130.604 23.968V17.64H132.732V23.94C132.732 24.7053 132.904 25.3027 133.25 25.732C133.595 26.152 134.127 26.362 134.846 26.362C135.564 26.362 136.096 26.152 136.442 25.732C136.787 25.3027 136.96 24.7053 136.96 23.94V17.64H139.088V23.968C139.088 24.8267 138.915 25.5873 138.57 26.25C138.234 26.9127 137.744 27.4307 137.1 27.804C136.465 28.168 135.714 28.35 134.846 28.35ZM142.856 17.64V28.252H140.728V17.64H142.856ZM151.97 19.46H149.198V28.252H147.07V19.46H144.242V17.64H151.97V19.46Z" fill="#5292E5"/>
<defs>
<clipPath id="clip0_2506_13343">
<rect width="87" height="30" fill="white"/>
</clipPath>
</defs>
</svg>
