<svg width="94" height="32" viewBox="0 0 94 32" fill="none" xmlns="http://www.w3.org/2000/svg">
<g clip-path="url(#clip0_1748_3549)">
<path d="M22.6708 13.1815L18.5706 7.85419C18.5077 7.7714 18.4078 7.72461 18.3042 7.72461H5.28584C3.39859 7.73901 2.13672 8.85127 2.13672 10.4423V13.6639H22.6338C22.8003 13.6639 22.8965 13.4767 22.7966 13.3471L22.6708 13.1815Z" fill="#0F1012"/>
<path d="M93.7987 7.7207H84.9805V13.66H89.484C89.8614 13.66 90.0427 13.5664 90.2537 13.2784L93.9246 8.09146L93.969 8.03026C94.0615 7.90068 93.969 7.7207 93.8025 7.7207H93.7987Z" fill="#0F1012"/>
<path d="M68.9748 15.712V10.4387C68.9748 10.4387 68.9637 9.4308 68.1459 8.6425C67.6205 8.13856 66.7582 7.72461 65.3558 7.72461H48.6961C48.5555 7.72461 48.4371 7.8074 48.3853 7.92618C48.3779 7.94418 48.3705 7.96578 48.3668 7.98738C48.3631 8.00897 48.3594 8.03057 48.3594 8.05217V13.6639H61.9217C61.9439 13.6639 61.9661 13.6675 61.9883 13.6747C62.0031 13.6783 62.0179 13.6855 62.0327 13.6963C62.0327 13.6963 62.0364 13.6963 62.0401 13.6999C62.0771 13.7251 62.103 13.7611 62.1178 13.8042C62.1215 13.815 62.1252 13.8294 62.1252 13.8438C62.1252 13.851 62.1252 13.8582 62.1252 13.8654V18.3865C62.1252 18.4945 62.0327 18.5845 61.9217 18.5845H55.1572C55.0462 18.5845 54.9537 18.4945 54.9537 18.3865V15.1721C54.9537 15.1217 54.9426 15.0749 54.9241 15.0353C54.8723 14.9237 54.7538 14.8445 54.6169 14.8445H48.3594V31.676C48.3594 31.6976 48.3594 31.7228 48.3668 31.7408C48.3705 31.7624 48.3779 31.784 48.3853 31.802C48.4186 31.8776 48.4778 31.9388 48.5555 31.9712C48.5999 31.9892 48.648 32.0036 48.6961 32.0036H54.6169C54.6687 32.0036 54.7168 31.9928 54.7575 31.9712C54.8315 31.9352 54.8945 31.8776 54.9278 31.802C54.9352 31.784 54.9426 31.7624 54.9463 31.7408C54.95 31.7192 54.9537 31.6976 54.9537 31.676V24.4085H65.5852C65.6111 24.4085 65.637 24.4085 65.6629 24.4085C66.3105 24.4013 66.9692 24.1566 67.5279 23.7714C67.5724 23.739 67.6168 23.7102 67.6612 23.6742C67.7056 23.6418 67.7463 23.6058 67.7907 23.5734C67.8536 23.523 67.9165 23.469 67.9757 23.4115C68.59 22.8391 68.997 22.0796 68.9822 21.3093V15.7192L68.9748 15.712Z" fill="#0F1012"/>
<path d="M45.651 10.5179C45.5696 9.60723 45.0959 8.84413 44.3892 8.34379C44.3706 8.32939 44.3521 8.31859 44.3336 8.30419C44.3077 8.2862 44.2781 8.2682 44.2485 8.2502C44.2411 8.2466 44.2337 8.243 44.23 8.2394C44.1671 8.19981 44.1005 8.16021 44.0302 8.12422C43.538 7.86505 42.9608 7.71747 42.3428 7.71387H28.144C27.3373 7.71387 26.6009 7.96584 26.0273 8.39778C25.9977 8.41938 25.9718 8.44098 25.9459 8.46257C25.9052 8.49497 25.8682 8.52737 25.8312 8.55976C25.7979 8.58856 25.7646 8.62095 25.7313 8.65335C25.2317 9.13569 24.906 9.78001 24.8394 10.5215C24.8394 10.5395 24.8394 10.5611 24.8394 10.5791V13.6675H39.4601C39.4897 13.6675 39.5156 13.6747 39.5378 13.6819C39.5452 13.6819 39.5489 13.6855 39.5563 13.6891C39.5637 13.6927 39.5748 13.6999 39.5822 13.7071C39.6303 13.7431 39.6636 13.8007 39.6636 13.8655V25.9312C39.6636 25.9852 39.6414 26.0356 39.6044 26.0716C39.5674 26.1076 39.5156 26.1292 39.4601 26.1292H31.023C30.9897 26.1292 30.9564 26.122 30.9267 26.104C30.9267 26.104 30.923 26.104 30.9193 26.104C30.9045 26.0968 30.8897 26.086 30.8786 26.0752C30.8564 26.0536 30.8416 26.0284 30.8305 25.9996C30.8231 25.978 30.8194 25.9564 30.8194 25.9348V15.1757C30.8194 15.1253 30.8083 15.0785 30.7898 15.039C30.7713 15.003 30.7491 14.9706 30.7232 14.9454C30.7158 14.9382 30.7084 14.931 30.701 14.9238C30.6418 14.877 30.5678 14.8482 30.4864 14.8482H24.832V28.6597C24.832 28.8936 24.8505 29.1204 24.8949 29.34C24.8949 29.3508 24.8986 29.3616 24.9023 29.3724C24.9097 29.4156 24.9208 29.4587 24.9319 29.4983C24.9319 29.5127 24.9393 29.5271 24.943 29.5415C24.9541 29.5811 24.9652 29.6207 24.9764 29.6567C24.9801 29.6747 24.9875 29.6891 24.9912 29.7071C25.0097 29.7683 25.0319 29.8295 25.0578 29.8871C25.0985 29.9879 25.1429 30.0851 25.1947 30.1823C25.2058 30.2039 25.2206 30.2291 25.2317 30.2507C25.2465 30.2758 25.2613 30.3046 25.2761 30.3298C25.2872 30.3478 25.2983 30.3694 25.3094 30.3874C25.3723 30.4882 25.4426 30.589 25.5166 30.6826C25.5388 30.7114 25.5647 30.7438 25.5906 30.7726C26.2382 31.5429 27.2374 32.018 28.3105 32.0036H42.1837C44.0487 32.0288 45.6843 30.5782 45.6621 28.6597V18.4477V12.7388V10.5863C45.6621 10.5683 45.6621 10.5467 45.6621 10.5287L45.651 10.5179Z" fill="#0F1012"/>
<path d="M83.7772 7.7207H71.0438C71.0031 7.7207 70.9661 7.7279 70.9291 7.7423C70.9143 7.7459 70.8995 7.7531 70.8847 7.7603C70.7773 7.81789 70.707 7.92588 70.707 8.05186V13.3324C70.707 13.516 70.8587 13.66 71.0438 13.66H76.9794C77.0053 13.66 77.0275 13.6636 77.0497 13.6744C77.1089 13.696 77.1533 13.7427 77.1718 13.8003C77.1755 13.8111 77.1792 13.8255 77.1792 13.8399C77.1792 13.8471 77.1792 13.8543 77.1792 13.8615V31.6721C77.1792 31.6937 77.1792 31.7189 77.1866 31.7369C77.1903 31.7585 77.1977 31.7801 77.2051 31.7981C77.2384 31.8737 77.2976 31.9349 77.3753 31.9673C77.4197 31.9853 77.4678 31.9997 77.5159 31.9997H83.4367C83.6218 31.9997 83.7735 31.8521 83.7735 31.6721V7.7207H83.7772Z" fill="#0F1012"/>
<path d="M22.821 27.5296C22.821 27.4612 22.821 27.3928 22.821 27.3244C22.821 27.22 22.8099 27.1193 22.8025 27.0221C22.7988 26.9717 22.7914 26.9213 22.784 26.8709C22.784 26.8601 22.784 26.8493 22.7803 26.8385C22.7729 26.7917 22.7655 26.7449 22.7581 26.6945C22.7581 26.6837 22.7543 26.6693 22.7506 26.6585C22.7432 26.6153 22.7358 26.5721 22.7247 26.5289C22.7247 26.5181 22.721 26.5073 22.7173 26.4965C22.7099 26.4533 22.6988 26.4137 22.6877 26.3705C22.6877 26.3561 22.6803 26.3381 22.6766 26.3237C22.6655 26.2842 22.6581 26.2482 22.647 26.2086C22.647 26.2086 22.647 26.2014 22.647 26.1978C22.6433 26.1798 22.6359 26.1618 22.6285 26.1402C22.6211 26.1114 22.61 26.0826 22.5989 26.0502C22.5915 26.0322 22.5878 26.0142 22.5804 25.9926C22.5656 25.9494 22.5508 25.9062 22.536 25.863C22.5286 25.8486 22.5249 25.8306 22.5175 25.8162C22.5064 25.7838 22.4916 25.755 22.4805 25.7226C22.4731 25.7046 22.4657 25.6866 22.4583 25.6686C22.4435 25.6326 22.4287 25.5966 22.4102 25.5606C22.4028 25.5462 22.3991 25.5318 22.3917 25.5175C22.3732 25.4779 22.3547 25.4419 22.3362 25.4023C22.3288 25.3879 22.3214 25.3699 22.314 25.3555C22.2955 25.3231 22.2807 25.2907 22.2622 25.2583C22.2548 25.2475 22.2511 25.2331 22.2437 25.2223C22.2215 25.1791 22.1956 25.1359 22.1734 25.0963C22.166 25.0855 22.1586 25.0711 22.1512 25.0603C22.1327 25.0279 22.1105 24.9955 22.092 24.9631C22.0846 24.9523 22.0772 24.9379 22.0698 24.9271C22.0439 24.8839 22.0142 24.8443 21.9883 24.8011C21.9846 24.7939 21.9772 24.7867 21.9735 24.7759C21.9476 24.7399 21.9254 24.7076 21.8995 24.6716C21.8921 24.6608 21.8847 24.65 21.8736 24.6392C21.844 24.5996 21.8107 24.5564 21.7811 24.5168C21.7478 24.4772 21.7145 24.434 21.6849 24.3944C21.6627 24.3692 21.6442 24.344 21.622 24.3188C21.5628 24.2504 21.5073 24.1784 21.4481 24.11C21.3963 24.0524 21.3482 23.9948 21.2964 23.9372C21.2519 23.8869 21.2075 23.8401 21.1631 23.7897C21.1113 23.7357 21.0632 23.6817 21.0114 23.6277C20.9411 23.5521 20.8671 23.4765 20.7931 23.4009C20.745 23.3505 20.6932 23.3001 20.6451 23.2497C20.5452 23.1489 20.4489 23.0518 20.349 22.951C20.2972 22.9006 20.2454 22.8466 20.1936 22.7962C20.09 22.6954 19.9901 22.5946 19.8865 22.4902C19.731 22.3354 19.5793 22.1807 19.4239 22.0223C18.9354 21.5219 18.2138 20.8092 17.4108 20.0281C17.1888 19.8122 16.9594 19.589 16.7262 19.3622C16.6337 19.2722 16.5412 19.1822 16.4487 19.0923C16.4006 19.0455 16.3525 18.9987 16.3044 18.9555C16.2119 18.8655 16.1157 18.7755 16.0231 18.6855C14.3246 17.0441 12.6261 15.4279 12.1413 14.9636C12.1154 14.9384 12.0895 14.9204 12.0599 14.9024C11.9859 14.8592 11.9008 14.834 11.812 14.834H2.9493C2.89009 14.834 2.86048 14.906 2.90119 14.9456L3.52287 15.5611L3.67829 15.7123L7.06055 19.0707L13.8288 25.7838C13.9361 25.8918 13.8843 26.0646 13.751 26.1078C13.7288 26.115 13.7066 26.1186 13.6844 26.1186H0.336745C0.22573 26.1186 0.125817 26.1726 0.0629084 26.2554C0.0407055 26.2842 0.0259035 26.3165 0.014802 26.3489C0.014802 26.3597 0.00740099 26.3705 0.00740099 26.3813C0.0037005 26.4029 0 26.4245 0 26.4461V31.6619C0 31.6619 0 31.6835 0 31.6943C0.00740099 31.7663 0.0407055 31.8311 0.0851114 31.8815C0.0925124 31.8887 0.0999134 31.8959 0.107314 31.9031C0.140619 31.9318 0.181324 31.957 0.22573 31.9714C0.259035 31.9822 0.29604 31.9894 0.333045 31.9894H18.1213C19.3906 31.9894 20.6303 31.5179 21.5036 30.618C22.5101 29.5849 22.8062 28.4655 22.8136 27.5188L22.821 27.5296Z" fill="#0F1012"/>
<path d="M1.26043 2.47649C0.723863 2.47649 0.261301 2.22812 0.113281 1.77458L0.568442 1.6306C0.683158 1.96535 0.968096 2.06614 1.25303 2.06614C1.53797 2.06614 1.79701 1.96535 1.79701 1.77458C1.79701 1.5694 1.50837 1.50821 1.26784 1.44702L1.0014 1.38223C0.723863 1.31384 0.216895 1.15546 0.216895 0.701912C0.216895 0.269966 0.672056 0 1.21233 0C1.7526 0 2.11525 0.266367 2.21886 0.554331L1.7748 0.72351C1.68229 0.532733 1.48246 0.413948 1.19753 0.413948C0.912588 0.413948 0.723863 0.521935 0.723863 0.665917C0.723863 0.863892 1.06431 0.953881 1.26043 1.00067L1.56018 1.07986C1.84141 1.14826 2.31138 1.26704 2.31138 1.72058C2.31138 2.17413 1.88212 2.48009 1.25673 2.48009L1.26043 2.47649ZM3.73607 2.4261V0.0503937H4.22453V1.02947H5.63442V0.0503937H6.12289V2.4261H5.63442V1.46862H4.22453V2.4261H3.73607ZM9.04258 2.47649C8.23217 2.47649 7.56238 1.97255 7.56238 1.24184C7.56238 0.511136 8.22477 0.00359955 9.04258 0.00359955C9.86039 0.00359955 10.5191 0.521935 10.5191 1.24184C10.5191 1.96175 9.86409 2.47649 9.04258 2.47649ZM8.07305 1.24184C8.07305 1.72058 8.51341 2.05174 9.04628 2.05174C9.57915 2.05174 10.0084 1.70619 10.0084 1.24184C10.0084 0.777503 9.59025 0.428346 9.04628 0.428346C8.50231 0.428346 8.07305 0.770304 8.07305 1.24184ZM13.0354 2.47649C12.1436 2.47649 11.9364 1.90776 11.9364 1.49381V0.0503937H12.4211V1.45782C12.4211 1.80337 12.5988 2.05174 13.0391 2.05174C13.4795 2.05174 13.6571 1.80337 13.6571 1.45782V0.0503937H14.1456V1.49381C14.1456 1.89336 13.9605 2.47649 13.0391 2.47649H13.0354ZM16.3585 0.467941H15.4481V0.0503937H17.7535V0.467941H16.8432V2.4261H16.3622V0.464342L16.3585 0.467941ZM24.0259 2.47649C23.2155 2.47649 22.5457 1.97255 22.5457 1.24184C22.5457 0.511136 23.2081 0.00359955 24.0259 0.00359955C24.8437 0.00359955 25.5024 0.521935 25.5024 1.24184C25.5024 1.96175 24.8474 2.47649 24.0259 2.47649ZM23.0564 1.24184C23.0564 1.72058 23.4967 2.05174 24.0296 2.05174C24.5625 2.05174 24.9917 1.70619 24.9917 1.24184C24.9917 0.777503 24.5736 0.428346 24.0296 0.428346C23.4856 0.428346 23.0564 0.770304 23.0564 1.24184ZM28.0187 2.47649C27.1269 2.47649 26.9197 1.90776 26.9197 1.49381V0.0503937H27.4044V1.45782C27.4044 1.80337 27.5821 2.05174 28.0224 2.05174C28.4628 2.05174 28.6404 1.80337 28.6404 1.45782V0.0503937H29.1289V1.49381C29.1289 1.89336 28.9438 2.47649 28.0224 2.47649H28.0187ZM30.709 2.4261V0.0503937H31.8154C32.093 0.0503937 32.822 0.118785 32.822 0.813498C32.822 1.25984 32.4963 1.46862 32.1374 1.53701C32.3853 1.83217 32.6332 2.12733 32.8812 2.4225H32.3335L31.6193 1.573H31.2011V2.4225H30.7127L30.709 2.4261ZM31.1974 1.17345H31.734C31.9968 1.17345 32.3113 1.10866 32.3113 0.824297C32.3113 0.539932 31.9931 0.460742 31.734 0.460742H31.1974V1.17345ZM38.0434 2.4261V0.0503937H39.1498C39.4607 0.0503937 40.1563 0.118785 40.1563 0.806299C40.1563 1.49381 39.4459 1.5874 39.1757 1.5874H38.5355V2.4261H38.0471H38.0434ZM38.5318 1.15186H39.0684C39.3311 1.15186 39.6457 1.10146 39.6457 0.806299C39.6457 0.511136 39.3274 0.467941 39.0684 0.467941H38.5318V1.14826V1.15186ZM41.0038 2.4261L42.1324 0.0503937H42.6949L43.8235 2.4261H43.3055C43.2019 2.21732 43.0982 2.01215 42.9909 1.80337H41.8142C41.7106 2.01215 41.6069 2.21732 41.4996 2.4261H40.9964H41.0038ZM42.0325 1.36783H42.7837C42.6579 1.11586 42.5284 0.853093 42.4137 0.597525H42.4025C42.2989 0.820697 42.1657 1.10146 42.0288 1.36783H42.0325ZM45.9809 2.48009C45.4444 2.48009 44.9818 2.23172 44.8338 1.77818L45.2889 1.6342C45.4036 1.96895 45.6886 2.06974 45.9735 2.06974C46.2585 2.06974 46.5175 1.96895 46.5175 1.77818C46.5175 1.573 46.2289 1.51181 45.9883 1.45062L45.7219 1.38583C45.4444 1.31744 44.9374 1.15906 44.9374 0.705512C44.9374 0.277165 45.3925 0.00359955 45.9328 0.00359955C46.4731 0.00359955 46.8357 0.269966 46.9394 0.55793L46.4953 0.727109C46.4028 0.536333 46.203 0.417548 45.918 0.417548C45.6331 0.417548 45.4444 0.525534 45.4444 0.669516C45.4444 0.867492 45.7848 0.95748 45.9809 1.00427L46.2807 1.08346C46.5619 1.15186 47.0319 1.27064 47.0319 1.72418C47.0319 2.17773 46.6026 2.48369 45.9772 2.48369L45.9809 2.48009ZM49.3891 2.48009C48.8525 2.48009 48.3899 2.23172 48.2419 1.77818L48.6971 1.6342C48.8118 1.96895 49.0967 2.06974 49.3817 2.06974C49.6666 2.06974 49.9257 1.96895 49.9257 1.77818C49.9257 1.573 49.637 1.51181 49.3965 1.45062L49.13 1.38583C48.8525 1.31744 48.3455 1.15906 48.3455 0.705512C48.3455 0.277165 48.8007 0.00359955 49.341 0.00359955C49.8812 0.00359955 50.2439 0.269966 50.3475 0.55793L49.9035 0.727109C49.8109 0.536333 49.6111 0.417548 49.3262 0.417548C49.0412 0.417548 48.8525 0.525534 48.8525 0.669516C48.8525 0.867492 49.193 0.95748 49.3891 1.00427L49.6888 1.08346C49.9701 1.15186 50.44 1.27064 50.44 1.72418C50.44 2.17773 50.0108 2.48369 49.3854 2.48369L49.3891 2.48009ZM51.8647 2.4297V0.0503937H52.3532V2.4261H51.8647V2.4297ZM55.2766 2.48009C54.4662 2.48009 53.7964 1.97615 53.7964 1.24544C53.7964 0.514736 54.4588 0.0071991 55.2766 0.0071991C56.0944 0.0071991 56.7531 0.525534 56.7531 1.24544C56.7531 1.96535 56.0981 2.48009 55.2766 2.48009ZM54.307 1.24544C54.307 1.72418 54.7474 2.05534 55.2803 2.05534C55.8131 2.05534 56.2424 1.70979 56.2424 1.24544C56.2424 0.781102 55.8242 0.431946 55.2803 0.431946C54.7363 0.431946 54.307 0.773903 54.307 1.24544ZM58.1963 2.4297V0.0503937H58.7069C59.151 0.547132 59.6506 1.08706 60.1168 1.6306H60.1279V0.0503937H60.609V2.4261H60.102C59.6358 1.91136 59.1658 1.41822 58.6958 0.87829H58.6847V2.4261H58.1963V2.4297ZM66.4854 0.471541H65.5751V0.0503937H67.8805V0.467941H66.9701V2.4261H66.4891V0.464342L66.4854 0.471541ZM70.4042 2.48009C69.5938 2.48009 68.924 1.97615 68.924 1.24544C68.924 0.514736 69.5864 0.0071991 70.4042 0.0071991C71.222 0.0071991 71.8807 0.525534 71.8807 1.24544C71.8807 1.96535 71.2257 2.48009 70.4042 2.48009ZM69.4347 1.24544C69.4347 1.72418 69.875 2.05534 70.4079 2.05534C70.9408 2.05534 71.37 1.70979 71.37 1.24544C71.37 0.781102 70.9519 0.431946 70.4079 0.431946C69.8639 0.431946 69.4347 0.773903 69.4347 1.24544ZM74.6006 2.48009C73.7569 2.48009 73.1574 1.96535 73.1574 1.24544C73.1574 0.464342 73.8383 0.0071991 74.6376 0.0071991C75.2592 0.0071991 75.781 0.313161 75.9697 0.752306L75.522 0.921485C75.3666 0.64072 75.0631 0.435546 74.6376 0.435546C74.1047 0.435546 73.668 0.741507 73.668 1.25984C73.668 1.86097 74.2305 2.05894 74.6857 2.05894C75.1408 2.05894 75.4887 1.87177 75.5516 1.573H74.719V1.20585H76.0401V2.4369H75.6663C75.6589 2.31811 75.6515 2.19573 75.6404 2.07694H75.6219C75.4147 2.34331 75.0742 2.48729 74.6006 2.48729V2.48009ZM77.5536 2.4297V0.0503937H79.4482V0.467941H78.0383V1.00067H79.3705V1.43982H78.0383V2.00495H79.4852V2.4261H77.5499L77.5536 2.4297ZM81.5871 0.471541H80.6768V0.0503937H82.9785V0.467941H82.0682V2.4261H81.5871V0.464342V0.471541ZM84.3107 2.4297V0.0503937H84.7991V1.02947H86.209V0.0503937H86.6975V2.4261H86.209V1.46862H84.7991V2.4261H84.3107V2.4297ZM88.3072 2.4297V0.0503937H90.2056V0.467941H88.7957V1.00067H90.1278V1.43982H88.7957V2.00495H90.2426V2.4261H88.3072V2.4297ZM91.7079 2.4297V0.0503937H92.8144C93.0919 0.0503937 93.8172 0.118785 93.8172 0.813498C93.8172 1.25984 93.4916 1.46862 93.1326 1.53701C93.3806 1.83217 93.6285 2.12733 93.8764 2.4225H93.3288L92.6146 1.573H92.1964V2.4225H91.7079V2.4297ZM92.1964 1.17705H92.733C92.9957 1.17705 93.3103 1.11226 93.3103 0.827897C93.3103 0.543532 92.992 0.464342 92.733 0.464342H92.1964V1.17705Z" fill="#0F1012"/>
</g>
<defs>
<clipPath id="clip0_1748_3549">
<rect width="94" height="32" fill="white"/>
</clipPath>
</defs>
</svg>
