<svg width="32" height="32" viewBox="0 0 32 32" fill="none" xmlns="http://www.w3.org/2000/svg">
<rect width="32" height="32" fill="#F4F5F6"/>
<g clip-path="url(#clip0_957_5051)">
<path d="M9.51136 12.8338L8.33366 11.2838C8.31559 11.2597 8.28689 11.2461 8.25713 11.2461H4.51782C3.97573 11.2503 3.61328 11.5739 3.61328 12.0368V12.9741H9.50073C9.54856 12.9741 9.5762 12.9197 9.5475 12.882L9.51136 12.8338Z" fill="#202020"/>
<path d="M29.9421 11.2441H27.4092V12.9722H28.7027C28.8112 12.9722 28.8632 12.9449 28.9238 12.8611L29.9782 11.352L29.991 11.3342C30.0176 11.2965 29.991 11.2441 29.9432 11.2441H29.9421Z" fill="#202020"/>
<path d="M22.8111 13.57V12.0357C22.8111 12.0357 22.8079 11.7425 22.573 11.5132C22.4221 11.3665 22.1744 11.2461 21.7716 11.2461H16.9864C16.946 11.2461 16.912 11.2702 16.8971 11.3047C16.895 11.31 16.8928 11.3163 16.8918 11.3225C16.8907 11.3288 16.8896 11.3351 16.8896 11.3414V12.9741H20.7852C20.7916 12.9741 20.798 12.9752 20.8043 12.9773C20.8086 12.9783 20.8128 12.9804 20.8171 12.9835C20.8171 12.9835 20.8182 12.9835 20.8192 12.9846C20.8298 12.9919 20.8373 13.0024 20.8415 13.015C20.8426 13.0181 20.8437 13.0223 20.8437 13.0265C20.8437 13.0286 20.8437 13.0307 20.8437 13.0328V14.3481C20.8437 14.3796 20.8171 14.4057 20.7852 14.4057H18.8422C18.8103 14.4057 18.7838 14.3796 18.7838 14.3481V13.4129C18.7838 13.3983 18.7806 13.3846 18.7752 13.3731C18.7604 13.3407 18.7264 13.3176 18.687 13.3176H16.8896V18.2147C16.8896 18.221 16.8896 18.2283 16.8918 18.2336C16.8928 18.2398 16.895 18.2461 16.8971 18.2514C16.9067 18.2734 16.9237 18.2912 16.946 18.3006C16.9587 18.3058 16.9726 18.31 16.9864 18.31H18.687C18.7019 18.31 18.7157 18.3069 18.7274 18.3006C18.7487 18.2901 18.7667 18.2734 18.7763 18.2514C18.7784 18.2461 18.7806 18.2398 18.7816 18.2336C18.7827 18.2273 18.7838 18.221 18.7838 18.2147V16.1003H21.8375C21.8449 16.1003 21.8524 16.1003 21.8598 16.1003C22.0458 16.0982 22.235 16.0269 22.3955 15.9149C22.4083 15.9055 22.421 15.8971 22.4338 15.8866C22.4465 15.8772 22.4582 15.8667 22.471 15.8573C22.489 15.8426 22.5071 15.8269 22.5241 15.8102C22.7006 15.6436 22.8175 15.4227 22.8132 15.1985V13.5721L22.8111 13.57Z" fill="#202020"/>
<path d="M16.1127 12.058C16.0894 11.7931 15.9533 11.571 15.7503 11.4255C15.745 11.4213 15.7397 11.4181 15.7343 11.4139C15.7269 11.4087 15.7184 11.4035 15.7099 11.3982C15.7078 11.3972 15.7056 11.3961 15.7046 11.3951C15.6865 11.3836 15.6674 11.3721 15.6472 11.3616C15.5058 11.2862 15.34 11.2432 15.1625 11.2422H11.0841C10.8524 11.2422 10.6409 11.3155 10.4761 11.4412C10.4676 11.4475 10.4602 11.4537 10.4527 11.46C10.4411 11.4694 10.4304 11.4789 10.4198 11.4883C10.4102 11.4967 10.4007 11.5061 10.3911 11.5155C10.2476 11.6559 10.1541 11.8433 10.1349 12.0591C10.1349 12.0643 10.1349 12.0706 10.1349 12.0758V12.9744H14.3345C14.343 12.9744 14.3504 12.9765 14.3568 12.9786C14.3589 12.9786 14.36 12.9796 14.3621 12.9807C14.3643 12.9817 14.3674 12.9838 14.3696 12.9859C14.3834 12.9964 14.3929 13.0131 14.3929 13.032V16.5425C14.3929 16.5582 14.3866 16.5729 14.3759 16.5833C14.3653 16.5938 14.3504 16.6001 14.3345 16.6001H11.9111C11.9015 16.6001 11.8919 16.598 11.8834 16.5928C11.8834 16.5928 11.8824 16.5928 11.8813 16.5928C11.877 16.5907 11.8728 16.5875 11.8696 16.5844C11.8632 16.5781 11.859 16.5708 11.8558 16.5624C11.8537 16.5561 11.8526 16.5498 11.8526 16.5435V13.4132C11.8526 13.3985 11.8494 13.3849 11.8441 13.3734C11.8388 13.3629 11.8324 13.3535 11.825 13.3462C11.8228 13.3441 11.8207 13.342 11.8186 13.3399C11.8016 13.3263 11.7803 13.3179 11.7569 13.3179H10.1328V17.3363C10.1328 17.4044 10.1381 17.4704 10.1509 17.5343C10.1509 17.5374 10.1519 17.5405 10.153 17.5437C10.1551 17.5563 10.1583 17.5688 10.1615 17.5803C10.1615 17.5845 10.1636 17.5887 10.1647 17.5929C10.1679 17.6044 10.1711 17.616 10.1743 17.6264C10.1753 17.6317 10.1775 17.6358 10.1785 17.6411C10.1838 17.6589 10.1902 17.6767 10.1976 17.6934C10.2093 17.7228 10.2221 17.751 10.237 17.7793C10.2402 17.7856 10.2444 17.7929 10.2476 17.7992C10.2519 17.8066 10.2561 17.8149 10.2604 17.8223C10.2635 17.8275 10.2667 17.8338 10.2699 17.839C10.288 17.8683 10.3082 17.8977 10.3295 17.9249C10.3358 17.9333 10.3433 17.9427 10.3507 17.9511C10.5367 18.1752 10.8237 18.3134 11.1319 18.3093H15.1168C15.6525 18.3166 16.1223 17.8945 16.1159 17.3363V14.3652V12.7042V12.0779C16.1159 12.0727 16.1159 12.0664 16.1159 12.0612L16.1127 12.058Z" fill="#202020"/>
<path d="M27.0638 11.2441H23.4063C23.3946 11.2441 23.384 11.2462 23.3733 11.2504C23.3691 11.2515 23.3648 11.2536 23.3606 11.2557C23.3298 11.2724 23.3096 11.3038 23.3096 11.3405V12.8769C23.3096 12.9303 23.3531 12.9722 23.4063 12.9722H25.1112C25.1186 12.9722 25.125 12.9732 25.1314 12.9763C25.1484 12.9826 25.1612 12.9962 25.1665 13.013C25.1675 13.0161 25.1686 13.0203 25.1686 13.0245C25.1686 13.0266 25.1686 13.0287 25.1686 13.0308V18.2128C25.1686 18.219 25.1686 18.2264 25.1707 18.2316C25.1718 18.2379 25.1739 18.2442 25.176 18.2494C25.1856 18.2714 25.2026 18.2892 25.2249 18.2986C25.2377 18.3039 25.2515 18.3081 25.2653 18.3081H26.966C27.0191 18.3081 27.0627 18.2651 27.0627 18.2128V11.2441H27.0638Z" fill="#202020"/>
<path d="M9.55496 17.0082C9.55496 16.9883 9.55496 16.9684 9.55496 16.9485C9.55496 16.9182 9.55177 16.8888 9.54964 16.8606C9.54858 16.8459 9.54645 16.8312 9.54433 16.8166C9.54433 16.8134 9.54433 16.8103 9.54326 16.8071C9.54114 16.7935 9.53901 16.7799 9.53689 16.7653C9.53689 16.7621 9.53582 16.7579 9.53476 16.7548C9.53263 16.7422 9.53051 16.7296 9.52732 16.7171C9.52732 16.7139 9.52626 16.7108 9.52519 16.7076C9.52307 16.6951 9.51988 16.6836 9.51669 16.671C9.51669 16.6668 9.51457 16.6616 9.5135 16.6574C9.51031 16.6459 9.50819 16.6354 9.505 16.6239C9.505 16.6239 9.505 16.6218 9.505 16.6207C9.50394 16.6155 9.50181 16.6103 9.49968 16.604C9.49756 16.5956 9.49437 16.5872 9.49118 16.5778C9.48906 16.5726 9.48799 16.5673 9.48587 16.561C9.48162 16.5485 9.47736 16.5359 9.47311 16.5233C9.47099 16.5191 9.46992 16.5139 9.4678 16.5097C9.46461 16.5003 9.46036 16.4919 9.45717 16.4825C9.45504 16.4772 9.45292 16.472 9.45079 16.4668C9.44654 16.4563 9.44229 16.4458 9.43697 16.4354C9.43485 16.4312 9.43378 16.427 9.43166 16.4228C9.42634 16.4113 9.42103 16.4008 9.41572 16.3893C9.41359 16.3851 9.41146 16.3799 9.40934 16.3757C9.40402 16.3662 9.39977 16.3568 9.39446 16.3474C9.39233 16.3442 9.39127 16.3401 9.38914 16.3369C9.38276 16.3243 9.37532 16.3118 9.36895 16.3003C9.36682 16.2971 9.3647 16.2929 9.36257 16.2898C9.35725 16.2804 9.35088 16.2709 9.34556 16.2615C9.34344 16.2584 9.34131 16.2542 9.33919 16.251C9.33175 16.2385 9.32324 16.2269 9.3158 16.2144C9.31474 16.2123 9.31261 16.2102 9.31155 16.207C9.30411 16.1966 9.29773 16.1872 9.29029 16.1767C9.28817 16.1735 9.28604 16.1704 9.28285 16.1673C9.27435 16.1557 9.26478 16.1432 9.25628 16.1316C9.24671 16.1201 9.23715 16.1076 9.22864 16.096C9.22227 16.0887 9.21695 16.0814 9.21057 16.074C9.19357 16.0541 9.17762 16.0332 9.16062 16.0133C9.14574 15.9965 9.13192 15.9798 9.11704 15.963C9.10428 15.9484 9.09153 15.9348 9.07877 15.9201C9.06389 15.9044 9.05007 15.8887 9.03519 15.873C9.015 15.851 8.99374 15.829 8.97248 15.807C8.95866 15.7923 8.94378 15.7777 8.92997 15.763C8.90127 15.7337 8.87363 15.7054 8.84493 15.6761C8.83005 15.6614 8.81517 15.6457 8.80029 15.631C8.77053 15.6017 8.74183 15.5724 8.71207 15.542C8.66743 15.497 8.62385 15.452 8.57921 15.4059C8.4389 15.2603 8.23164 15.0529 8.00098 14.8257C7.93721 14.7628 7.87131 14.6979 7.80435 14.6319C7.77777 14.6058 7.7512 14.5796 7.72463 14.5534C7.71081 14.5398 7.69699 14.5262 7.68317 14.5136C7.6566 14.4874 7.62897 14.4612 7.60239 14.435C7.11452 13.9575 6.62664 13.4873 6.4874 13.3522C6.47996 13.3448 6.47252 13.3396 6.46402 13.3344C6.44276 13.3218 6.41831 13.3145 6.3928 13.3145H3.84714C3.83013 13.3145 3.82163 13.3354 3.83332 13.3469L4.01189 13.526L4.05653 13.57L5.02803 14.5471L6.97209 16.5003C7.00291 16.5317 6.98803 16.582 6.94977 16.5945C6.94339 16.5966 6.93701 16.5977 6.93064 16.5977H3.09672C3.06484 16.5977 3.03614 16.6134 3.01807 16.6375C3.01169 16.6459 3.00744 16.6553 3.00425 16.6647C3.00425 16.6679 3.00213 16.671 3.00213 16.6741C3.00106 16.6804 3 16.6867 3 16.693V18.2105C3 18.2105 3 18.2168 3 18.2199C3.00213 18.2409 3.01169 18.2597 3.02445 18.2744C3.02657 18.2765 3.0287 18.2786 3.03082 18.2807C3.04039 18.289 3.05208 18.2964 3.06484 18.3006C3.0744 18.3037 3.08503 18.3058 3.09566 18.3058H8.20506C8.56964 18.3058 8.92571 18.1686 9.17656 17.9068C9.46567 17.6062 9.5507 17.2805 9.55283 17.0051L9.55496 17.0082Z" fill="#202020"/>
<path d="M3.3627 9.71858C3.20858 9.71858 3.07572 9.64631 3.0332 9.51436L3.16394 9.47247C3.19689 9.56986 3.27873 9.59919 3.36058 9.59919C3.44242 9.59919 3.51683 9.56986 3.51683 9.51436C3.51683 9.45466 3.43392 9.43686 3.36483 9.41905L3.2883 9.4002C3.20858 9.38031 3.06296 9.33422 3.06296 9.20227C3.06296 9.07659 3.1937 8.99805 3.34889 8.99805C3.50407 8.99805 3.60824 9.07555 3.638 9.15933L3.51045 9.20855C3.48388 9.15304 3.42648 9.11848 3.34464 9.11848C3.26279 9.11848 3.20858 9.1499 3.20858 9.19179C3.20858 9.24939 3.30637 9.27558 3.3627 9.28919L3.4488 9.31223C3.52958 9.33213 3.66457 9.36669 3.66457 9.49865C3.66457 9.63061 3.54127 9.71962 3.36164 9.71962L3.3627 9.71858ZM4.07379 9.70392V9.01271H4.21409V9.29757H4.61906V9.01271H4.75937V9.70392H4.61906V9.42534H4.21409V9.70392H4.07379ZM5.598 9.71858C5.36522 9.71858 5.17284 9.57196 5.17284 9.35936C5.17284 9.14676 5.3631 8.99909 5.598 8.99909C5.8329 8.99909 6.0221 9.1499 6.0221 9.35936C6.0221 9.56882 5.83397 9.71858 5.598 9.71858ZM5.31952 9.35936C5.31952 9.49865 5.44601 9.595 5.59906 9.595C5.75212 9.595 5.87542 9.49446 5.87542 9.35936C5.87542 9.22426 5.75531 9.12267 5.59906 9.12267C5.44282 9.12267 5.31952 9.22217 5.31952 9.35936ZM6.74488 9.71858C6.48872 9.71858 6.4292 9.55311 6.4292 9.43267V9.01271H6.56844V9.4222C6.56844 9.52274 6.61946 9.595 6.74594 9.595C6.87243 9.595 6.92345 9.52274 6.92345 9.4222V9.01271H7.06375V9.43267C7.06375 9.54892 7.01061 9.71858 6.74594 9.71858H6.74488ZM7.69937 9.13419H7.4379V9.01271H8.10009V9.13419H7.83861V9.70392H7.70043V9.13315L7.69937 9.13419ZM9.90172 9.71858C9.66894 9.71858 9.47655 9.57196 9.47655 9.35936C9.47655 9.14676 9.66681 8.99909 9.90172 8.99909C10.1366 8.99909 10.3258 9.1499 10.3258 9.35936C10.3258 9.56882 10.1377 9.71858 9.90172 9.71858ZM9.62324 9.35936C9.62324 9.49865 9.74972 9.595 9.90278 9.595C10.0558 9.595 10.1791 9.49446 10.1791 9.35936C10.1791 9.22426 10.059 9.12267 9.90278 9.12267C9.74653 9.12267 9.62324 9.22217 9.62324 9.35936ZM11.0486 9.71858C10.7924 9.71858 10.7329 9.55311 10.7329 9.43267V9.01271H10.8722V9.4222C10.8722 9.52274 10.9232 9.595 11.0497 9.595C11.1761 9.595 11.2272 9.52274 11.2272 9.4222V9.01271H11.3675V9.43267C11.3675 9.54892 11.3143 9.71858 11.0497 9.71858H11.0486ZM11.8213 9.70392V9.01271H12.1391C12.2189 9.01271 12.4283 9.03261 12.4283 9.23473C12.4283 9.3646 12.3347 9.42534 12.2316 9.44524C12.3028 9.53111 12.374 9.61699 12.4453 9.70287H12.2879L12.0828 9.45571H11.9627V9.70287H11.8224L11.8213 9.70392ZM11.9616 9.33946H12.1158C12.1912 9.33946 12.2816 9.32061 12.2816 9.23787C12.2816 9.15514 12.1902 9.1321 12.1158 9.1321H11.9616V9.33946ZM13.928 9.70392V9.01271H14.2458C14.3351 9.01271 14.5349 9.03261 14.5349 9.23264C14.5349 9.43267 14.3309 9.4599 14.2533 9.4599H14.0694V9.70392H13.9291H13.928ZM14.0683 9.33318H14.2224C14.2979 9.33318 14.3883 9.31852 14.3883 9.23264C14.3883 9.14676 14.2968 9.13419 14.2224 9.13419H14.0683V9.33213V9.33318ZM14.7783 9.70392L15.1025 9.01271H15.2641L15.5883 9.70392H15.4395C15.4097 9.64317 15.3799 9.58348 15.3491 9.52274H15.0111C14.9814 9.58348 14.9516 9.64317 14.9208 9.70392H14.7762H14.7783ZM15.0738 9.39601H15.2896C15.2535 9.3227 15.2163 9.24625 15.1833 9.1719H15.1801C15.1504 9.23683 15.1121 9.31852 15.0728 9.39601H15.0738ZM16.208 9.71962C16.0538 9.71962 15.921 9.64736 15.8785 9.5154L16.0092 9.47351C16.0421 9.57091 16.124 9.60023 16.2058 9.60023C16.2877 9.60023 16.3621 9.57091 16.3621 9.5154C16.3621 9.45571 16.2792 9.43791 16.2101 9.4201L16.1335 9.40125C16.0538 9.38135 15.9082 9.33527 15.9082 9.20331C15.9082 9.07869 16.0389 8.99909 16.1941 8.99909C16.3493 8.99909 16.4535 9.07659 16.4832 9.16038L16.3557 9.2096C16.3291 9.15409 16.2717 9.11953 16.1899 9.11953C16.108 9.11953 16.0538 9.15095 16.0538 9.19284C16.0538 9.25044 16.1516 9.27662 16.208 9.29024L16.294 9.31328C16.3748 9.33318 16.5098 9.36774 16.5098 9.4997C16.5098 9.63165 16.3865 9.72067 16.2069 9.72067L16.208 9.71962ZM17.1869 9.71962C17.0328 9.71962 16.8999 9.64736 16.8574 9.5154L16.9881 9.47351C17.0211 9.57091 17.1029 9.60023 17.1848 9.60023C17.2666 9.60023 17.341 9.57091 17.341 9.5154C17.341 9.45571 17.2581 9.43791 17.189 9.4201L17.1125 9.40125C17.0328 9.38135 16.8871 9.33527 16.8871 9.20331C16.8871 9.07869 17.0179 8.99909 17.1731 8.99909C17.3283 8.99909 17.4324 9.07659 17.4622 9.16038L17.3346 9.2096C17.3081 9.15409 17.2507 9.11953 17.1688 9.11953C17.087 9.11953 17.0328 9.15095 17.0328 9.19284C17.0328 9.25044 17.1306 9.27662 17.1869 9.29024L17.273 9.31328C17.3538 9.33318 17.4888 9.36774 17.4888 9.4997C17.4888 9.63165 17.3655 9.72067 17.1858 9.72067L17.1869 9.71962ZM17.898 9.70496V9.01271H18.0383V9.70392H17.898V9.70496ZM18.878 9.71962C18.6452 9.71962 18.4528 9.57301 18.4528 9.36041C18.4528 9.14781 18.6431 9.00014 18.878 9.00014C19.1129 9.00014 19.3021 9.15095 19.3021 9.36041C19.3021 9.56986 19.1139 9.71962 18.878 9.71962ZM18.5995 9.36041C18.5995 9.4997 18.726 9.59605 18.879 9.59605C19.0321 9.59605 19.1554 9.49551 19.1554 9.36041C19.1554 9.22531 19.0353 9.12372 18.879 9.12372C18.7228 9.12372 18.5995 9.22321 18.5995 9.36041ZM19.7166 9.70496V9.01271H19.8633C19.9908 9.15723 20.1343 9.31433 20.2683 9.47247H20.2715V9.01271H20.4096V9.70392H20.264C20.1301 9.55415 19.9951 9.41068 19.8601 9.25358H19.8569V9.70392H19.7166V9.70496ZM22.0975 9.13524H21.8361V9.01271H22.4982V9.13419H22.2368V9.70392H22.0986V9.13315L22.0975 9.13524ZM23.2231 9.71962C22.9904 9.71962 22.798 9.57301 22.798 9.36041C22.798 9.14781 22.9882 9.00014 23.2231 9.00014C23.458 9.00014 23.6472 9.15095 23.6472 9.36041C23.6472 9.56986 23.4591 9.71962 23.2231 9.71962ZM22.9447 9.36041C22.9447 9.4997 23.0712 9.59605 23.2242 9.59605C23.3773 9.59605 23.5006 9.49551 23.5006 9.36041C23.5006 9.22531 23.3805 9.12372 23.2242 9.12372C23.068 9.12372 22.9447 9.22321 22.9447 9.36041ZM24.4285 9.71962C24.1861 9.71962 24.014 9.56986 24.014 9.36041C24.014 9.13315 24.2095 9.00014 24.4391 9.00014C24.6177 9.00014 24.7676 9.08916 24.8218 9.21693L24.6931 9.26615C24.6485 9.18446 24.5613 9.12477 24.4391 9.12477C24.2861 9.12477 24.1606 9.21379 24.1606 9.3646C24.1606 9.53949 24.3222 9.59709 24.4529 9.59709C24.5837 9.59709 24.6836 9.54263 24.7017 9.45571H24.4625V9.34889H24.842V9.70706H24.7346C24.7325 9.6725 24.7304 9.63689 24.7272 9.60233H24.7218C24.6623 9.67983 24.5645 9.72172 24.4285 9.72172V9.71962ZM25.2767 9.70496V9.01271H25.8209V9.13419H25.4159V9.28919H25.7986V9.41696H25.4159V9.58138H25.8315V9.70392H25.2756L25.2767 9.70496ZM26.4353 9.13524H26.1738V9.01271H26.8349V9.13419H26.5734V9.70392H26.4353V9.13315V9.13524ZM27.2176 9.70496V9.01271H27.3579V9.29757H27.7628V9.01271H27.9031V9.70392H27.7628V9.42534H27.3579V9.70392H27.2176V9.70496ZM28.3655 9.70496V9.01271H28.9108V9.13419H28.5058V9.28919H28.8884V9.41696H28.5058V9.58138H28.9214V9.70392H28.3655V9.70496ZM29.3423 9.70496V9.01271H29.6601C29.7398 9.01271 29.9482 9.03261 29.9482 9.23473C29.9482 9.3646 29.8546 9.42534 29.7515 9.44524C29.8227 9.53111 29.894 9.61699 29.9652 9.70287H29.8079L29.6027 9.45571H29.4826V9.70287H29.3423V9.70496ZM29.4826 9.34051H29.6367C29.7122 9.34051 29.8026 9.32166 29.8026 9.23892C29.8026 9.15619 29.7111 9.13315 29.6367 9.13315H29.4826V9.34051Z" fill="#202020"/>
</g>
<path d="M24.6507 22.4521H23.8187V25.0321H23.3907V22.4521H22.5547V22.0801H24.6507V22.4521Z" fill="black"/>
<path d="M22.0724 22.0801V25.0321H21.6484V22.0801H22.0724Z" fill="black"/>
<path d="M19.9893 25.0601C19.7573 25.0601 19.556 25.0094 19.3853 24.9081C19.2147 24.8067 19.084 24.6667 18.9933 24.4881C18.9053 24.3067 18.8613 24.0987 18.8613 23.8641V22.0801H19.2853V23.8641C19.2853 24.1121 19.3453 24.3081 19.4653 24.4521C19.5853 24.5961 19.76 24.6681 19.9893 24.6681C20.2187 24.6681 20.3933 24.5961 20.5133 24.4521C20.6333 24.3081 20.6933 24.1121 20.6933 23.8641V22.0801H21.1213V23.8641C21.1213 24.0987 21.076 24.3067 20.9853 24.4881C20.8947 24.6667 20.764 24.8067 20.5933 24.9081C20.4227 25.0094 20.2213 25.0601 19.9893 25.0601Z" fill="black"/>
<path d="M17.3375 23.5521C17.5002 23.5521 17.6309 23.5027 17.7295 23.4041C17.8309 23.3027 17.8815 23.1681 17.8815 23.0001C17.8815 22.8321 17.8309 22.6987 17.7295 22.6001C17.6309 22.5014 17.5002 22.4521 17.3375 22.4521H16.6935V23.5521H17.3375ZM16.2695 22.0801H17.3895C17.5682 22.0801 17.7269 22.1187 17.8655 22.1961C18.0042 22.2734 18.1122 22.3827 18.1895 22.5241C18.2669 22.6627 18.3055 22.8227 18.3055 23.0041C18.3055 23.1987 18.2509 23.3721 18.1415 23.5241C18.0322 23.6734 17.8709 23.7867 17.6575 23.8641L18.4455 25.0321H17.9335L17.1855 23.9241H16.6935V25.0321H16.2695V22.0801Z" fill="black"/>
<path d="M14.789 25.0648C14.5063 25.0648 14.2543 25.0008 14.033 24.8728C13.8143 24.7448 13.6423 24.5662 13.517 24.3368C13.3943 24.1075 13.333 23.8475 13.333 23.5568C13.333 23.2635 13.3943 23.0035 13.517 22.7768C13.6423 22.5475 13.8143 22.3688 14.033 22.2408C14.2543 22.1128 14.5063 22.0488 14.789 22.0488C14.9863 22.0488 15.173 22.0875 15.349 22.1648C15.525 22.2422 15.681 22.3502 15.817 22.4888L15.537 22.7648C15.4463 22.6582 15.3343 22.5742 15.201 22.5128C15.0703 22.4515 14.9317 22.4208 14.785 22.4208C14.5823 22.4208 14.4037 22.4688 14.249 22.5648C14.0943 22.6582 13.9743 22.7915 13.889 22.9648C13.8037 23.1355 13.761 23.3328 13.761 23.5568C13.761 23.7808 13.8037 23.9795 13.889 24.1528C13.9743 24.3235 14.0943 24.4568 14.249 24.5528C14.4037 24.6462 14.5823 24.6928 14.785 24.6928C14.9343 24.6928 15.0717 24.6622 15.197 24.6008C15.3223 24.5395 15.4303 24.4582 15.521 24.3568L15.817 24.6248C15.5237 24.9208 15.181 25.0675 14.789 25.0648Z" fill="black"/>
<path d="M12.9656 22.4521H11.4816V23.3281H12.7576V23.6961H11.4816V24.6601H12.9656V25.0321H11.0576V22.0801H12.9656V22.4521Z" fill="black"/>
<path d="M9.50355 23.5521C9.66621 23.5521 9.79688 23.5027 9.89555 23.4041C9.99688 23.3027 10.0475 23.1681 10.0475 23.0001C10.0475 22.8321 9.99688 22.6987 9.89555 22.6001C9.79688 22.5014 9.66621 22.4521 9.50355 22.4521H8.85955V23.5521H9.50355ZM8.43555 22.0801H9.55555C9.73421 22.0801 9.89288 22.1187 10.0315 22.1961C10.1702 22.2734 10.2782 22.3827 10.3555 22.5241C10.4329 22.6627 10.4715 22.8227 10.4715 23.0041C10.4715 23.1987 10.4169 23.3721 10.3075 23.5241C10.1982 23.6734 10.0369 23.7867 9.82355 23.8641L10.6115 25.0321H10.0995L9.35155 23.9241H8.85955V25.0321H8.43555V22.0801Z" fill="black"/>
<defs>
<clipPath id="clip0_957_5051">
<rect width="27" height="9.31034" fill="white" transform="translate(3 9)"/>
</clipPath>
</defs>
</svg>
