<svg width="32" height="32" viewBox="0 0 32 32" fill="none" xmlns="http://www.w3.org/2000/svg">
<rect width="32" height="32" fill="#F4F5F6"/>
<path d="M13.5996 20.2836V16.3721C13.5996 15.8372 13.8372 15.3295 14.2488 14.9851L26.74 4.53193C27.2382 4.11501 27.9992 4.46719 27.9992 5.1147L27.9992 9.08407C27.9992 9.62074 27.7601 10.1298 27.3462 10.4743L14.8572 20.8677C14.3586 21.2827 13.5996 20.9302 13.5996 20.2836Z" fill="black"/>
<path d="M23.9673 21.0469C23.5442 21.0469 23.2012 20.7058 23.2012 20.2851L23.2012 17.0362C23.2012 16.6154 23.5442 16.2744 23.9673 16.2744L27.2349 16.2744C27.658 16.2744 28.001 16.6154 28.001 17.0362L28.001 20.2851C28.001 20.7058 27.658 21.0469 27.2349 21.0469L23.9673 21.0469Z" fill="black"/>
<path fill-rule="evenodd" clip-rule="evenodd" d="M4.06492 20.5885C4.02318 20.4945 4 20.3905 4 20.2811L4 17.0327C4 17.0103 4.00097 16.9882 4.00287 16.9663V16.3721C4.00287 15.8372 4.24042 15.3295 4.65193 14.9851L17.1406 4.53193C17.6387 4.11501 18.3995 4.46719 18.3995 5.1147L18.3996 9.08407C18.3996 9.62074 18.1605 10.1298 17.7467 10.4743L8.79765 17.9233V20.2811C8.79765 20.7018 8.45478 21.0428 8.03183 21.0428H4.8503C4.52469 21.0764 4.19788 20.8948 4.06492 20.5885Z" fill="black"/>
<path d="M25.9136 24.471H24.9431V27.4804H24.4439V24.471H23.4688V24.0371H25.9136V24.471Z" fill="black"/>
<path d="M22.9067 24.0371V27.4804H22.4121V24.0371H22.9067Z" fill="black"/>
<path d="M20.4759 27.5131C20.2053 27.5131 19.9704 27.454 19.7714 27.3358C19.5723 27.2176 19.4199 27.0543 19.3141 26.8459C19.2115 26.6344 19.1602 26.3917 19.1602 26.118V24.0371H19.6547V26.118C19.6547 26.4073 19.7247 26.6359 19.8647 26.8039C20.0046 26.9718 20.2084 27.0558 20.4759 27.0558C20.7434 27.0558 20.9471 26.9718 21.0871 26.8039C21.2271 26.6359 21.297 26.4073 21.297 26.118V24.0371H21.7963V26.118C21.7963 26.3917 21.7434 26.6344 21.6376 26.8459C21.5319 27.0543 21.3795 27.2176 21.1804 27.3358C20.9813 27.454 20.7465 27.5131 20.4759 27.5131Z" fill="black"/>
<path d="M17.3844 25.7541C17.5742 25.7541 17.7266 25.6965 17.8417 25.5815C17.9599 25.4633 18.019 25.3062 18.019 25.1102C18.019 24.9143 17.9599 24.7587 17.8417 24.6437C17.7266 24.5286 17.5742 24.471 17.3844 24.471H16.6332V25.7541H17.3844ZM16.1387 24.0371H17.4451C17.6535 24.0371 17.8385 24.0822 18.0003 24.1724C18.162 24.2626 18.288 24.3901 18.3782 24.555C18.4684 24.7167 18.5135 24.9034 18.5135 25.1149C18.5135 25.342 18.4498 25.5441 18.3222 25.7214C18.1947 25.8956 18.0065 26.0278 17.7577 26.118L18.6768 27.4804H18.0796L17.2071 26.188H16.6332V27.4804H16.1387V24.0371Z" fill="black"/>
<path d="M14.4112 27.5179C14.0815 27.5179 13.7876 27.4433 13.5294 27.294C13.2743 27.1447 13.0737 26.9363 12.9275 26.6688C12.7844 26.4013 12.7129 26.098 12.7129 25.759C12.7129 25.4168 12.7844 25.1135 12.9275 24.8492C13.0737 24.5817 13.2743 24.3733 13.5294 24.224C13.7876 24.0747 14.0815 24 14.4112 24C14.6414 24 14.8591 24.0451 15.0644 24.1353C15.2697 24.2255 15.4517 24.3515 15.6103 24.5132L15.2837 24.8352C15.1779 24.7107 15.0473 24.6128 14.8918 24.5412C14.7394 24.4697 14.5776 24.4339 14.4065 24.4339C14.1701 24.4339 13.9617 24.4899 13.7813 24.6019C13.6009 24.7107 13.461 24.8663 13.3614 25.0684C13.2619 25.2675 13.2121 25.4977 13.2121 25.759C13.2121 26.0203 13.2619 26.252 13.3614 26.4542C13.461 26.6532 13.6009 26.8088 13.7813 26.9207C13.9617 27.0296 14.1701 27.084 14.4065 27.084C14.5807 27.084 14.7409 27.0483 14.8871 26.9767C15.0333 26.9052 15.1593 26.8103 15.265 26.6921L15.6103 27.0047C15.2681 27.35 14.8684 27.5211 14.4112 27.5179Z" fill="black"/>
<path d="M12.2861 24.471H10.5551V25.4928H12.0435V25.9221H10.5551V27.0465H12.2861V27.4804H10.0605V24.0371H12.2861V24.471Z" fill="black"/>
<path d="M8.24574 25.7541C8.43548 25.7541 8.58789 25.6965 8.70298 25.5815C8.82118 25.4633 8.88028 25.3062 8.88028 25.1102C8.88028 24.9143 8.82118 24.7587 8.70298 24.6437C8.58789 24.5286 8.43548 24.471 8.24574 24.471H7.49456V25.7541H8.24574ZM7 24.0371H8.3064C8.5148 24.0371 8.69987 24.0822 8.86162 24.1724C9.02336 24.2626 9.14933 24.3901 9.23954 24.555C9.32974 24.7167 9.37484 24.9034 9.37484 25.1149C9.37484 25.342 9.31108 25.5441 9.18355 25.7214C9.05602 25.8956 8.86784 26.0278 8.619 26.118L9.53814 27.4804H8.94093L8.06845 26.188H7.49456V27.4804H7V24.0371Z" fill="black"/>
</svg>
